<?xml version="1.0" standalone="no"?><!DOCTYPE svg PUBLIC "-//W3C//DTD SVG 1.1//EN" "http://www.w3.org/Graphics/SVG/1.1/DTD/svg11.dtd"><svg t="1533281961623" class="icon" style="" viewBox="0 0 1024 1024" version="1.1" xmlns="http://www.w3.org/2000/svg" p-id="30441" xmlns:xlink="http://www.w3.org/1999/xlink" width="200" height="200"><defs><style type="text/css"></style></defs><path d="M510.464 991.744l1.024-219.648c0-15.36 17.408-30.72 40.448-30.72h41.472l0.512-101.376c0-25.6 13.312-48.64 34.816-67.584 0.512-4.096 1.024-9.216 1.536-13.312 1.536-8.192 3.584-14.336 5.632-19.968 2.56-5.12 5.632-10.24 9.728-14.336 4.096-3.584 8.704-7.68 13.824-11.264 5.12-3.584 10.752-8.192 16.896-13.312 5.12-4.608 9.728-11.264 14.336-18.944 4.096-8.192 8.192-16.384 11.264-25.088 3.072-9.728 6.144-19.968 9.216-30.208 6.144-2.048 12.8-5.12 18.432-10.752 5.12-4.608 9.728-11.264 14.336-18.944 4.096-8.704 7.68-18.944 9.216-32.768 1.536-10.752 1.024-18.944-0.512-26.624-1.536-7.68-3.584-13.312-6.144-17.408-2.56-5.12-6.144-9.728-10.752-11.776 0.512-26.112-1.024-52.736-4.608-78.336-3.072-22.528-9.216-45.568-16.896-71.168-8.704-25.088-20.48-48.128-37.376-69.12-7.68-9.216-16.896-17.92-28.672-27.136-11.776-9.216-25.6-16.384-40.448-24.064-15.36-7.68-31.232-13.312-48.64-17.408-17.408-4.608-35.328-6.656-54.784-6.656-15.36 0-30.72 1.536-46.592 4.096-15.872 2.56-31.744 7.68-47.616 13.824-15.872 6.144-31.232 15.36-46.592 27.136s-29.184 26.112-41.984 43.52c-13.312 18.432-23.552 39.936-30.208 63.488-6.656 23.552-11.776 45.568-14.336 67.072-3.584 25.088-4.608 49.664-4.096 74.24-5.12 6.656-9.728 13.312-11.776 20.48-2.56 6.144-4.096 14.336-5.12 23.04-1.024 9.216 0 18.944 3.072 29.696 3.584 11.264 7.68 19.456 11.776 25.6 4.608 5.632 9.216 10.752 12.8 13.824 4.608 3.072 9.216 5.12 13.824 6.656 3.072 10.24 6.144 20.48 9.728 30.208 3.072 8.704 6.656 16.384 10.752 25.088 4.096 8.704 8.704 14.336 13.824 18.944 11.264 9.216 20.992 17.92 30.208 26.624 9.216 8.704 13.824 20.48 15.36 36.352 0.512 10.24 1.024 18.944 1.024 27.648 0 8.704-1.536 16.384-4.096 24.576-2.56 8.192-8.704 15.872-15.872 23.552-7.68 8.192-17.92 15.872-31.744 24.576-16.896 11.264-36.864 19.456-59.392 25.6-23.04 5.632-121.344 39.936-142.848 47.104-20.992 6.656-39.936 16.896-55.808 29.184-15.36 12.288-25.6 30.72-29.184 54.784-6.144 41.984-8.192 48.128-4.096 75.264 3.584 26.624 9.216 42.496 15.872 47.616 5.632 4.096 23.04 9.728 51.2 15.872s205.312 39.424 411.136 39.936c-2.56-2.56-3.072-5.12-3.072-7.68z" fill="" p-id="30442"></path><path d="M941.056 757.248H906.24v-87.552c0-52.224-62.976-94.72-141.824-94.72s-141.824 42.496-141.824 94.72l-0.512 87.552h-35.328c-19.456 0-34.304 13.312-34.304 26.624l-0.512 189.44c0 13.312 16.384 26.624 36.352 26.624h355.328c19.456 0 34.304-13.312 34.304-26.624l0.512-189.44c-1.024-13.312-17.408-26.624-37.376-26.624z m-105.984 0h-142.336v-91.136c0-26.112 32.256-44.032 71.68-44.032s70.656 17.92 70.656 44.032v91.136z" fill="" p-id="30443"></path></svg>