<?xml version="1.0" standalone="no"?><!DOCTYPE svg PUBLIC "-//W3C//DTD SVG 1.1//EN" "http://www.w3.org/Graphics/SVG/1.1/DTD/svg11.dtd"><svg t="1533281422938" class="icon" style="" viewBox="0 0 1024 1024" version="1.1" xmlns="http://www.w3.org/2000/svg" p-id="15595" xmlns:xlink="http://www.w3.org/1999/xlink" width="200" height="200"><defs><style type="text/css"></style></defs><path d="M992.312946 320.113778h-223.345778l-174.648889-174.762667a96.028444 96.028444 0 1 0-164.408889 0.739556L256.000057 320.113778H31.687168A31.971556 31.971556 0 0 0 0.000057 352.142222v639.829334A32.085333 32.085333 0 0 0 31.687168 1024h960.625778a31.971556 31.971556 0 0 0 31.744-31.971556V352.142222a31.971556 31.971556 0 0 0-31.744-32.028444z m-512-133.575111a96.256 96.256 0 0 0 64.739555 0l133.802667 133.802666H346.45339zM128.000057 512h320v64H128.000057z m512 320h-512V768h512z m192-128H128.000057v-63.886222h704z" p-id="15596"></path></svg>