<?xml version="1.0" standalone="no"?><!DOCTYPE svg PUBLIC "-//W3C//DTD SVG 1.1//EN" "http://www.w3.org/Graphics/SVG/1.1/DTD/svg11.dtd"><svg class="icon" width="200px" height="200.00px" viewBox="0 0 1024 1024" version="1.1" xmlns="http://www.w3.org/2000/svg"><path fill="#333333" d="M963.369 754.636c0 18.1-14.69 32.757-32.829 32.757H667.966c-18.131 0-32.821-14.658-32.821-32.757 0-18.095 14.69-32.753 32.821-32.753h262.576c18.131-0.013 32.827 14.658 32.827 32.753z m4.102 192.461c0 18.119-14.676 32.797-32.797 32.797H409.871c-18.119 0-32.803-14.677-32.803-32.797s14.684-32.803 32.803-32.803h524.798c18.126 0 32.802 14.684 32.802 32.803zM49.172 959.908c-1.348 13.193 11.457 22.873 23.769 17.505 14.69-6.394 152.66-66.611 216.905-94.679L75.284 724.68c-8.052 71.335-24.917 223.579-26.11 235.23z m46.97-295.849l246.321 181.455 396.519-537.958-246.313-181.45L96.142 664.06z m666.385-467.762L591.996 70.68c-20.928-15.423-50.394-10.96-65.823 9.968L512.21 99.587l246.321 181.456 13.963-18.94c15.422-20.928 10.96-50.382-9.968-65.804zM623.339 312.513c12.75 9.189 15.621 27.004 6.406 39.78L362.832 722.404c-9.215 12.769-27.023 15.666-39.769 6.475-12.756-9.189-15.62-27.011-6.413-39.78l266.913-370.111c9.21-12.777 27.018-15.678 39.775-6.475z"  /></svg>