<?xml version="1.0" standalone="no"?><!DOCTYPE svg PUBLIC "-//W3C//DTD SVG 1.1//EN" "http://www.w3.org/Graphics/SVG/1.1/DTD/svg11.dtd"><svg t="1533277842225" class="icon" style="" viewBox="0 0 1024 1024" version="1.1" xmlns="http://www.w3.org/2000/svg" p-id="4577" xmlns:xlink="http://www.w3.org/1999/xlink" width="200" height="200"><defs><style type="text/css"></style></defs><path d="M225.28 640c-17.92 0-31.744-14.336-31.744-31.744V287.744c0-17.92 14.336-31.744 32.256-31.744 17.408 0 31.744 14.336 31.744 31.744v320c-0.512 17.92-14.848 32.256-32.256 32.256z m190.976 0c-17.92 0-31.744-14.336-31.744-31.744v-128c0-17.92 14.336-31.744 31.744-31.744s31.744 14.336 31.744 31.744v128c0.512 17.408-13.824 31.744-31.744 31.744z m191.488 0c-17.92 0-31.744-14.336-31.744-31.744V287.744c0-17.92 14.336-31.744 31.744-31.744s31.744 14.336 31.744 31.744v320c0 17.92-14.336 32.256-31.744 32.256z m191.488 0c-17.92 0-31.744-14.336-31.744-31.744v-128c0-17.92 14.336-31.744 31.744-31.744s31.744 14.336 31.744 31.744v128c0 17.408-14.336 31.744-31.744 31.744z m-55.296 324.096H289.792c-17.92 0-31.744-14.336-31.744-31.744 0-17.92 14.336-31.744 31.744-31.744h454.144c17.92 0 31.744 14.336 31.744 31.744 0.512 17.408-13.824 31.744-31.744 31.744z" p-id="4578"></path><path d="M927.744 768H96.256C43.008 768 0 724.992 0 671.744v-512c0-52.736 43.008-96.256 96.256-96.256h832c52.736 0 96.256 43.008 96.256 96.256v512c-0.512 53.248-43.52 96.256-96.768 96.256zM96.256 128c-17.92 0-31.744 14.336-31.744 31.744v512c0 17.92 14.336 31.744 31.744 31.744h832c17.408 0 31.744-14.336 31.744-31.744v-512c0-17.92-14.336-31.744-31.744-31.744H96.256z" p-id="4579"></path><path d="M225.28 640c-17.92 0-31.744-14.336-31.744-31.744V287.744c0-17.92 14.336-31.744 32.256-31.744 17.408 0 31.744 14.336 31.744 31.744v320c-0.512 17.92-14.848 32.256-32.256 32.256z m190.976 0c-17.92 0-31.744-14.336-31.744-31.744v-128c0-17.92 14.336-31.744 31.744-31.744s31.744 14.336 31.744 31.744v128c0.512 17.408-13.824 31.744-31.744 31.744z m191.488 0c-17.92 0-31.744-14.336-31.744-31.744V287.744c0-17.92 14.336-31.744 31.744-31.744s31.744 14.336 31.744 31.744v320c0 17.92-14.336 32.256-31.744 32.256z m191.488 0c-17.92 0-31.744-14.336-31.744-31.744v-128c0-17.92 14.336-31.744 31.744-31.744s31.744 14.336 31.744 31.744v128c0 17.408-14.336 31.744-31.744 31.744z m-55.296 324.096H289.792c-17.92 0-31.744-14.336-31.744-31.744 0-17.92 14.336-31.744 31.744-31.744h454.144c17.92 0 31.744 14.336 31.744 31.744 0.512 17.408-13.824 31.744-31.744 31.744z" p-id="4580"></path><path d="M927.744 768H96.256C43.008 768 0 724.992 0 671.744v-512c0-52.736 43.008-96.256 96.256-96.256h832c52.736 0 96.256 43.008 96.256 96.256v512c-0.512 53.248-43.52 96.256-96.768 96.256zM96.256 128c-17.92 0-31.744 14.336-31.744 31.744v512c0 17.92 14.336 31.744 31.744 31.744h832c17.408 0 31.744-14.336 31.744-31.744v-512c0-17.92-14.336-31.744-31.744-31.744H96.256z" p-id="4581"></path></svg>