<?xml version="1.0" standalone="no"?><!DOCTYPE svg PUBLIC "-//W3C//DTD SVG 1.1//EN" "http://www.w3.org/Graphics/SVG/1.1/DTD/svg11.dtd"><svg class="icon" width="200px" height="200.00px" viewBox="0 0 1024 1024" version="1.1" xmlns="http://www.w3.org/2000/svg"><path fill="#333333" d="M723.355173 738.090421c-200.511881-13.756454-264.914516-141.486597-260.784311-396.396419l130.355171 0.674319c9.311452 0.103212 17.955466-4.845808 21.676263-13.365967 1.216183-2.721359 1.952429-5.728272 1.952429-8.644014a21.870646 21.870646 0 0 0-6.595254-15.93767L396.790345 34.149446c-8.917526-8.860759-23.707821-8.872801-32.898859-0.285554L140.937853 301.893694c-6.693305 6.359586-8.876241 16.052923-5.482283 24.414824 3.504051 8.418668 11.888315 13.503584 21.268574 13.510464l132.703247 0.892785c-4.224816 259.75047 74.792654 478.150729 421.179367 418.917301l12.748415-21.538647zM186.103471 1002.695301h651.796499c79.934337 0 144.83411-64.910094 144.834109-144.853032V278.597001c0-79.939497-64.796561-144.842711-144.834109-144.842711h-144.837551v67.870562h144.837551c40.080702 0 72.406734 32.453327 72.406733 72.422215v588.353737c0 39.970609-32.326032 72.429096-72.406733 72.429096H186.103471c-39.956847 0-72.418775-32.336353-72.418775-72.429096V495.741513h-72.420496v362.104196c0.00172 80.05131 64.800001 144.849592 144.839271 144.849592z" /></svg>