<?xml version="1.0" standalone="no"?><!DOCTYPE svg PUBLIC "-//W3C//DTD SVG 1.1//EN" "http://www.w3.org/Graphics/SVG/1.1/DTD/svg11.dtd"><svg t="1533281488469" class="icon" style="" viewBox="0 0 1024 1024" version="1.1" xmlns="http://www.w3.org/2000/svg" p-id="17436" xmlns:xlink="http://www.w3.org/1999/xlink" width="200" height="200"><defs><style type="text/css"></style></defs><path d="M1001.244444 859.022222l-51.2-34.133333v-22.755556-22.755555l45.511112-39.822222c5.688889-5.688889 5.688889-11.377778 0-11.377778l-45.511112-79.644445s-5.688889-5.688889-11.377777 0l-56.888889 22.755556c-11.377778-11.377778-22.755556-17.066667-39.822222-22.755556l-11.377778-56.888889c0-5.688889-5.688889-11.377778-11.377778-11.377777H739.555556c-5.688889 0-11.377778 5.688889-11.377778 11.377777l-11.377778 62.577778c-11.377778 5.688889-22.755556 11.377778-39.822222 22.755556l-56.888889-22.755556c-5.688889 0-11.377778 0-17.066667 5.688889L557.511111 739.555556s0 11.377778 5.688889 11.377777l45.511111 34.133334v45.511111l-39.822222 34.133333c-5.688889 5.688889-5.688889 11.377778 0 11.377778l45.511111 79.644444s5.688889 5.688889 11.377778 0l56.888889-22.755555c11.377778 11.377778 22.755556 17.066667 39.822222 22.755555l11.377778 56.888889c0 5.688889 5.688889 11.377778 11.377777 11.377778h91.022223c5.688889 0 11.377778-5.688889 11.377777-11.377778l11.377778-56.888889c11.377778-5.688889 28.444444-11.377778 39.822222-22.755555l56.888889 22.755555c5.688889 0 11.377778 0 11.377778-5.688889l45.511111-79.644444c-5.688889 0-5.688889-5.688889-11.377778-11.377778z m-216.177777 22.755556c-45.511111 0-79.644444-34.133333-79.644445-79.644445s34.133333-79.644444 79.644445-79.644444c45.511111 0 79.644444 34.133333 79.644444 79.644444s-39.822222 79.644444-79.644444 79.644445z" p-id="17437"></path><path d="M494.933333 802.133333c0-153.6 119.466667-273.066667 273.066667-273.066666h34.133333V85.333333c0-28.444444-22.755556-51.2-51.2-51.2h-682.666666c-28.444444 0-51.2 22.755556-51.2 51.2v853.333334c0 28.444444 22.755556 51.2 51.2 51.2H568.888889c-45.511111-51.2-73.955556-113.777778-73.955556-187.733334zM102.4 136.533333h614.4v51.2H102.4v-51.2z m0 221.866667H682.666667v51.2H102.4v-51.2z m0 204.8h443.733333v51.2H102.4v-51.2z m375.466667 256H102.4v-51.2h375.466667v51.2z" p-id="17438"></path></svg>