<?xml version="1.0" standalone="no"?><!DOCTYPE svg PUBLIC "-//W3C//DTD SVG 1.1//EN" "http://www.w3.org/Graphics/SVG/1.1/DTD/svg11.dtd"><svg t="1533289256402" class="icon" style="" viewBox="0 0 1170 1024" version="1.1" xmlns="http://www.w3.org/2000/svg" p-id="37559" xmlns:xlink="http://www.w3.org/1999/xlink" width="228.515625" height="200"><defs><style type="text/css"></style></defs><path d="M584.954375 1024a35.761748 35.761748 0 0 1-27.132124-12.469076L8.963516 377.509499a36.566205 36.566205 0 0 1-0.76789-47.097272l255.963434-317.028996a35.834881 35.834881 0 0 1 27.93658-13.383231h585.42494a35.871447 35.871447 0 0 1 27.93658 13.383231l256.219397 317.028996a36.822168 36.822168 0 0 1-0.76789 47.133838L611.9768 1011.530924a35.908013 35.908013 0 0 1-27.022425 12.469076zM83.375743 352.644479l501.578632 579.464648 501.68833-579.428081-226.088845-279.731467H309.354889z m501.578632 634.131124a36.12741 36.12741 0 0 1-33.311813-22.488215l-249.710613-606.999001a36.785602 36.785602 0 0 1 6.984145-38.943008l249.710613-269.712327a35.798315 35.798315 0 0 1 26.327668-11.591487 35.944579 35.944579 0 0 1 26.364233 11.591487l249.674047 269.748893a36.566205 36.566205 0 0 1 6.947579 38.906442l-249.63748 606.999001a36.163977 36.163977 0 0 1-33.348379 22.451649zM377.514295 351.181831l207.44008 504.174832 207.44008-504.138266-207.44008-224.114269z m712.675332 51.192687H79.719123a36.566205 36.566205 0 0 1 0-73.13241h1010.470504a36.566205 36.566205 0 0 1 0 73.13241z" p-id="37560"></path></svg>