<?xml version="1.0" standalone="no"?><!DOCTYPE svg PUBLIC "-//W3C//DTD SVG 1.1//EN" "http://www.w3.org/Graphics/SVG/1.1/DTD/svg11.dtd"><svg t="1533281540568" class="icon" style="" viewBox="0 0 1024 1024" version="1.1" xmlns="http://www.w3.org/2000/svg" p-id="18661" xmlns:xlink="http://www.w3.org/1999/xlink" width="200" height="200"><defs><style type="text/css"></style></defs><path d="M1022.721598 1022.721598H545.238452C208.379526 1022.721598 0 791.970037 0 511.360799a511.360799 511.360799 0 0 1 1022.721598 0 588.064919 588.064919 0 0 1-88.848939 293.393258c-78.621723 138.706617 85.013733 115.05618 89.48814 219.245943zM292.114856 437.852684A72.868914 72.868914 0 1 0 364.98377 511.360799a72.868914 72.868914 0 0 0-72.868914-73.508115z m219.245943 0A72.868914 72.868914 0 1 0 584.229713 511.360799 72.868914 72.868914 0 0 0 511.360799 437.852684z m219.245943 0A72.868914 72.868914 0 1 0 803.475655 511.360799a72.868914 72.868914 0 0 0-72.868913-72.868914z" p-id="18662"></path></svg>