<?xml version="1.0" standalone="no"?><!DOCTYPE svg PUBLIC "-//W3C//DTD SVG 1.1//EN" "http://www.w3.org/Graphics/SVG/1.1/DTD/svg11.dtd"><svg t="1533289883490" class="icon" style="" viewBox="0 0 1072 1024" version="1.1" xmlns="http://www.w3.org/2000/svg" p-id="39284" xmlns:xlink="http://www.w3.org/1999/xlink" width="209.375" height="200"><defs><style type="text/css"></style></defs><path d="M731.428571 142.140952V243.809524h-48.761904V142.140952a73.142857 73.142857 0 1 1 48.761904 0z m-341.333333 0V243.809524H341.333333V142.140952a73.142857 73.142857 0 1 1 48.761905 0zM292.571429 243.809524h487.619047a195.047619 195.047619 0 0 1 195.047619 195.047619v438.857143H97.52381V438.857143a195.047619 195.047619 0 0 1 195.047619-195.047619z m48.761904 195.047619a97.52381 97.52381 0 1 0 0 195.047619h390.095238a97.52381 97.52381 0 1 0 0-195.047619H341.333333z m-292.571428 438.857143h975.238095a48.761905 48.761905 0 0 1 48.761905 48.761904v48.761905a48.761905 48.761905 0 0 1-48.761905 48.761905H48.761905a48.761905 48.761905 0 0 1-48.761905-48.761905v-48.761905a48.761905 48.761905 0 0 1 48.761905-48.761904z m0-438.857143h48.761905v292.571428H48.761905a48.761905 48.761905 0 0 1-48.761905-48.761904v-195.047619a48.761905 48.761905 0 0 1 48.761905-48.761905z m975.238095 0a48.761905 48.761905 0 0 1 48.761905 48.761905v195.047619a48.761905 48.761905 0 0 1-48.761905 48.761904h-48.761905V438.857143h48.761905z" p-id="39285"></path></svg>