<?xml version="1.0" standalone="no"?><!DOCTYPE svg PUBLIC "-//W3C//DTD SVG 1.1//EN" "http://www.w3.org/Graphics/SVG/1.1/DTD/svg11.dtd"><svg t="1533281125501" class="icon" style="" viewBox="0 0 1024 1024" version="1.1" xmlns="http://www.w3.org/2000/svg" p-id="12927" xmlns:xlink="http://www.w3.org/1999/xlink" width="200" height="200"><defs><style type="text/css"></style></defs><path d="M 888.518 202.959 c -27.755 -34.214 117.369 -68.483 117.369 -106.217 c 0 -72.586 -381.506 -94.122 -493.885 -94.122 c -281.333 0 -509.382 228.037 -509.382 509.351 c 0 281.372 228.045 509.407 509.382 509.407 c 281.333 0 509.376 -228.035 509.376 -509.407 c 0 -121.475 -61.849 -221.463 -132.861 -309.013 v 0 Z M 590.404 137.824 c 24.825 0 46.889 14.608 61.033 37.315 c 10.213 16.315 -75.881 59.153 -75.881 59.153 s 88.204 34.735 81.338 49.173 c -13.438 28.341 -38.208 47.296 -66.49 47.296 c -42.72 0 -77.285 -43.189 -77.285 -96.47 s 34.564 -96.468 77.285 -96.468 v 0 Z M 356.782 137.824 c 24.822 0 46.95 14.608 61.087 37.315 c 10.151 16.315 -75.937 59.153 -75.937 59.153 s 88.206 34.735 81.339 49.173 c -13.5 28.341 -38.202 47.296 -66.49 47.296 c -42.666 0 -77.285 -43.189 -77.285 -96.47 c -0.004 -53.281 34.623 -96.468 77.287 -96.468 v 0 Z M 584.181 789.236 c -125.934 0 -233.916 -76.46 -279.102 -185.019 c 38.38 33.859 92.484 116.831 279.102 116.831 c 89.67 0 228.4 -91.014 228.4 -221.637 c 0 -21.708 -43.425 -17.545 -43.425 -36.438 c 0 -18.839 116.842 -35.447 116.842 27.403 c 0 165.007 -135.15 298.861 -301.817 298.861 v 0 Z M 584.181 789.236 Z" p-id="12928"></path></svg>