<?xml version="1.0" standalone="no"?><!DOCTYPE svg PUBLIC "-//W3C//DTD SVG 1.1//EN" "http://www.w3.org/Graphics/SVG/1.1/DTD/svg11.dtd"><svg t="1533280906570" class="icon" style="" viewBox="0 0 1024 1024" version="1.1" xmlns="http://www.w3.org/2000/svg" p-id="6155" xmlns:xlink="http://www.w3.org/1999/xlink" width="200" height="200"><defs><style type="text/css"></style></defs><path d="M54.2 509.8c-5.3 5.3-7.1 12.4-3.5 19.5 1.8 7.1 8.9 10.6 16 10.6h88.7v390.4c0 10.6 7.1 17.7 17.7 17.7h177.5c10.6 0 17.7-7.1 17.7-17.7V628.7h213v301.7c0 10.6 7.1 17.7 17.7 17.7h177.5c10.6 0 17.7-7.1 17.7-17.7V540H883c7.1 0 14.2-3.5 16-10.6s1.8-14.2-3.5-19.5L487.2 101.6c-2.7-3.5-7.1-5.3-11.8-5.3-4.7 0-9.5 1.8-13.1 5.3L54.2 509.8z" p-id="6156"></path></svg>