<?xml version="1.0" standalone="no"?><!DOCTYPE svg PUBLIC "-//W3C//DTD SVG 1.1//EN" "http://www.w3.org/Graphics/SVG/1.1/DTD/svg11.dtd"><svg t="1533281862508" class="icon" style="" viewBox="0 0 1024 1024" version="1.1" xmlns="http://www.w3.org/2000/svg" p-id="28618" xmlns:xlink="http://www.w3.org/1999/xlink" width="200" height="200"><defs><style type="text/css"></style></defs><path d="M777.024 365.504c-22.656 99.264-85.12 163.52-85.12 163.52s-104.32 100.736-46.912 69.44c118.336-64.512 150.656-232.96 150.656-232.96s0-0.448 0-1.152l9.344 0 40.064-77.504-77.312-91.072 0 168.64 9.536 0C777.216 364.8 777.152 365.056 777.024 365.504z" p-id="28619"></path><path d="M517.12 601.28c148.928-0.256 248.256-198.272 248.256-304.96S764.928 0 517.12 0C269.312 0 268.864 189.632 268.864 296.32S368.128 601.472 517.12 601.28z" p-id="28620"></path><path d="M745.152 620.608c-37.504-15.616-65.28-26.368-65.28-26.368l-118.784 199.872-21.888-29.44 28.096-56.832-56.256-56.832-56.256 56.832 28.16 56.832-21.888 29.44L342.208 594.24c0 0-182.72 70.976-246.144 113.6C32.64 750.592 4.608 880 4.608 880l673.28 0C665.92 788.544 688.32 692.032 745.152 620.608z" p-id="28621"></path><path d="M795.584 365.504" p-id="28622"></path><path d="M1023.04 824.32c0.576 3.136 0.384 6.784-0.384 11.072-0.704 4.224-1.984 8.576-3.776 12.928-1.728 4.288-3.904 8.384-6.4 11.904-2.56 3.52-5.312 6.016-8.256 7.552-3.008 1.408-5.696 2.176-7.872 2.176-2.304 0-4.8-0.448-7.552-1.408-2.56-0.768-5.696-1.472-9.344-2.048-3.904-0.768-7.744-0.768-11.584-0.384-3.904 0.384-7.744 1.152-11.648 2.432-3.968 1.28-7.168 3.264-9.92 6.336-6.08 6.4-9.536 13.44-10.624 21.44-0.96 8.064 0.192 15.808 3.52 22.976 2.368 4.992 1.984 10.048-1.28 15.04-1.536 1.984-3.84 4.032-7.104 6.272-3.264 2.112-6.784 4.032-10.688 5.824-3.968 1.664-8 3.136-12.224 4.096-4.16 1.024-8.064 1.408-11.328 1.408-2.24 0-4.352-0.896-6.336-2.56-1.984-1.792-3.52-3.712-4.224-5.696l-0.384 0c-2.752-7.744-7.424-14.464-14.08-20.096-6.656-5.632-14.336-8.384-23.104-8.384-8.576 0-16.32 2.752-23.168 8.384-6.848 5.696-11.712 12.16-14.464 19.776-1.344 3.072-3.136 5.248-5.696 6.656-2.496 1.28-5.248 1.984-8.32 1.984-3.52 0-7.424-0.576-11.776-1.792-4.416-1.344-8.832-2.752-13.248-4.672-4.352-1.92-8.256-4.096-11.904-6.656-3.584-2.496-6.144-5.056-7.808-7.424-1.28-1.856-1.984-3.904-2.048-6.272-0.128-2.432 0.832-5.76 2.816-9.92 2.752-5.888 3.776-12.416 3.136-19.776-0.576-7.488-3.904-14.272-9.536-20.608-3.52-3.776-7.808-6.208-12.736-7.232-5.056-1.152-9.856-1.664-14.4-1.344-5.248 0.256-10.624 1.28-16.192 3.008-3.52 0.96-7.04 0.768-10.56-0.704-2.752-1.088-5.312-3.328-7.616-6.976-2.368-3.712-4.48-7.616-6.464-12.032-1.92-4.48-3.328-9.024-4.288-13.568-1.024-4.608-1.344-8.512-0.768-11.648 0.768-5.376 3.328-9.024 7.552-10.432 7.488-2.944 14.336-7.936 20.16-14.912 6.08-6.72 9.152-14.528 9.152-23.04 0-8.768-3.072-16.448-9.152-22.976-5.888-6.528-12.672-11.328-20.16-14.272-2.304-0.704-4.224-2.56-5.696-5.504-1.472-2.88-2.24-5.888-2.24-8.832 0-3.264 0.576-6.784 1.472-10.88 1.024-4.032 2.304-7.872 3.968-11.776 1.536-3.712 3.52-7.168 5.696-10.304 2.112-3.136 4.416-5.44 6.912-6.976 1.984-1.28 4.032-1.728 5.888-1.408 1.792 0.192 3.84 0.768 6.144 1.408 7.552 3.136 15.36 4.032 23.616 2.944 8.128-1.216 15.296-4.736 21.568-10.816 3.136-2.944 5.184-6.656 6.592-11.072 1.408-4.352 2.24-8.832 2.624-13.056 0.384-4.16 0.384-8.064 0-11.584-0.384-3.584-0.704-6.08-0.96-7.552-0.576-1.408-0.96-3.264-1.344-5.312-0.384-1.984-0.192-3.712 0.576-5.248 1.472-3.52 4.224-6.656 8.128-9.216 3.84-2.624 8.064-4.864 12.672-6.656 4.352-1.728 8.832-3.008 13.056-3.968C794.048 601.984 797.44 601.6 799.936 601.6c3.328 0 5.824 1.152 7.68 3.136 1.92 2.24 3.264 4.416 4.032 6.656 2.752 6.784 7.296 12.672 13.504 17.92 6.336 5.056 13.696 7.616 22.144 7.616 8.896 0 16.704-2.368 23.36-7.232 6.784-4.864 11.584-11.136 14.4-18.688 1.024-1.984 2.56-4.032 4.736-6.272C891.776 602.752 894.016 601.6 896.384 601.6c3.52 0 7.168 0.512 11.392 1.472 4.16 1.152 8.192 2.368 12.16 4.096s7.68 4.032 11.2 6.784c3.328 2.752 6.08 5.824 8.128 9.024 1.216 1.92 1.6 4.224 1.088 6.656-0.576 2.304-1.088 4.032-1.408 5.056-3.328 7.232-4.288 14.848-3.136 22.976 1.28 8 4.928 14.976 11.008 21.056 6.016 5.952 13.44 9.28 22.208 9.92 8.704 0.64 16.896-0.896 24.448-4.352 1.984-1.28 4.416-1.728 7.36-1.408 2.816 0.192 5.248 1.344 7.232 3.328 3.776 3.584 7.168 8.96 9.984 16 2.88 7.168 4.8 14.336 5.824 21.696 0.576 4.224-0.192 7.616-1.984 9.92-1.856 2.368-3.904 4.032-5.952 4.736-7.68 2.752-14.336 7.552-19.84 14.592-5.568 6.784-8.384 14.656-8.384 23.424 0 8.576 2.368 16 6.976 22.336 4.672 6.464 10.752 11.072 18.24 13.824 1.728 1.024 3.328 1.984 4.416 2.944C1020.224 818.048 1022.08 820.8 1023.04 824.32L1023.04 824.32zM848 858.368c11.456 0 22.08-2.24 32-6.464 10.112-4.288 18.88-10.24 26.176-17.664 7.488-7.488 13.376-16.256 17.536-26.176 4.224-9.92 6.464-20.48 6.464-31.808s-2.176-21.888-6.464-31.808c-4.16-9.92-10.048-18.496-17.536-25.984-7.296-7.36-16.064-13.184-26.176-17.472-9.92-4.16-20.544-6.336-32-6.336-11.2 0-21.76 2.112-31.68 6.336-9.856 4.288-18.496 10.112-25.92 17.472-7.424 7.488-13.312 16.064-17.536 25.984s-6.464 20.48-6.464 31.808 2.176 21.888 6.464 31.808 10.112 18.688 17.536 26.176c7.424 7.424 16.064 13.376 25.92 17.664C826.24 856.128 836.8 858.368 848 858.368L848 858.368zM848 858.368" p-id="28623"></path></svg>