<?xml version="1.0" standalone="no"?><!DOCTYPE svg PUBLIC "-//W3C//DTD SVG 1.1//EN" "http://www.w3.org/Graphics/SVG/1.1/DTD/svg11.dtd"><svg t="1533288831912" class="icon" style="" viewBox="0 0 1024 1024" version="1.1" xmlns="http://www.w3.org/2000/svg" p-id="35660" xmlns:xlink="http://www.w3.org/1999/xlink" width="200" height="200"><defs><style type="text/css"></style></defs><path d="M1024 793.6v-99.328s-64.512-15.36-69.632-19.456c0-5.12-5.12-10.24-5.12-15.36 10.24-15.36 45.056-45.056 45.056-45.056l-74.752-99.328s-49.152 39.936-59.392 45.056c-5.12 0-10.24-5.12-19.456-5.12-5.12 0-24.576-64.512-24.576-64.512h-99.328s-10.24 59.392-24.576 64.512c-5.12 0-10.24 5.12-15.36 5.12-10.24-5.12-59.392-45.056-59.392-45.056l-74.752 99.328s39.936 39.936 39.936 49.152c0 5.12-5.12 10.24-5.12 10.24-15.36 5.12-59.392 15.36-59.392 15.36v99.328s54.272 10.24 64.512 19.456c0 5.12 5.12 10.24 5.12 15.36-10.24 15.36-45.056 39.936-45.056 39.936l78.848 99.328s59.392-39.936 69.632-39.936c5.12 0 10.24 5.12 15.36 5.12 10.24 5.12 15.36 59.392 15.36 59.392h99.328s5.12-59.392 10.24-59.392 15.36-5.12 19.456-10.24c10.24 5.12 49.152 45.056 49.152 45.056l99.328-99.328s-34.816-24.576-49.152-39.936c5.12-5.12 5.12-10.24 10.24-19.456 4.096 4.096 63.488-10.24 63.488-10.24z m-258.048 78.848c-69.632 0-129.024-54.272-129.024-129.024s54.272-129.024 129.024-129.024c69.632 0 129.024 54.272 129.024 129.024s-59.392 129.024-129.024 129.024z m-349.184-397.312c113.664 0 232.448-113.664 232.448-232.448s-113.664-242.688-228.352-242.688c-113.664 0-228.352 123.904-228.352 247.808 1.024 118.784 109.568 227.328 224.256 227.328z m49.152 50.176h-232.448c-59.392 0-143.36 29.696-173.056 118.784l-59.392 178.176c-15.36 45.056 198.656 69.632 406.528 69.632 69.632 0 19.456-59.392 19.456-129.024 9.216-163.84 147.456-237.568 38.912-237.568z" fill="" p-id="35661"></path></svg>