<?xml version="1.0" standalone="no"?><!DOCTYPE svg PUBLIC "-//W3C//DTD SVG 1.1//EN" "http://www.w3.org/Graphics/SVG/1.1/DTD/svg11.dtd"><svg t="1533288638113" class="icon" style="" viewBox="0 0 1025 1024" version="1.1" xmlns="http://www.w3.org/2000/svg" p-id="31813" xmlns:xlink="http://www.w3.org/1999/xlink" width="200.1953125" height="200"><defs><style type="text/css"></style></defs><path d="M407.8 749.4c0-46.6 9.2-91.6 27.2-134.2 17.4-41 42.2-78 73.8-109.6 31.6-31.6 68.6-56.4 109.6-73.8 15.2-6.4 30.6-11.6 46.4-15.8 2-6.6 3.8-13.4 5.6-20.2 6-1.8 11.6-5 17-9.8 4.8-4.2 9.2-10.2 13-17.6 4-7.6 6.8-17.6 8.6-30.2 1.2-9.6 1-17.6-0.4-24.2s-3.4-12-5.8-16.2c-2.4-4.8-5.6-8.4-9.8-10.8 0.4-24-1-48-4.6-72-3-20.4-8.4-42.2-15.8-65.2-7.6-23-18.8-44.2-33.8-63.4-6.6-8.4-15.2-16.8-26-24.8-10.8-8-23-15.4-36.8-22-13.8-6.6-28.6-12-44.6-16.2-16-4.2-32.6-6.2-50-6.2-13.8 0-28.2 1.2-42.8 3.6-14.6 2.4-29.2 6.6-43.6 12.6s-28.8 14.4-42.8 24.8c-14 10.4-26.8 23.8-38.2 40-12 17.4-21.2 36.8-27.4 58.4-6.2 21.6-10.6 42-13 61.2-3 22.8-4.2 45.6-3.6 68.4-4.8 6-8.4 12.2-10.8 18.8-2.4 6-4 13.2-5 21.2-0.8 8 0.2 17.2 3.2 27.4 3 10.2 6.6 18 10.8 23.4s8 9.6 11.6 12.6c4.2 2.8 8.4 5 12.6 6.2 3 9.6 6 18.8 9 27.8 3 7.8 6.2 15.6 9.8 23 3.6 7.6 7.8 13.4 12.6 17.6 10.2 8.4 19.4 16.4 27.4 24.2 8.2 7.8 12.8 18.8 14 33.2 0.6 9 1 17.4 1 25.2 0 7.8-1.4 15.2-4 22.4-2.8 7.2-7.6 14.4-14.4 21.6s-16.6 14.6-29.2 22.4c-15.6 10.2-33.8 18-54.4 23.4-20.6 5.4-111.2 36.6-130.6 43.2-19.4 6.6-36.4 15.6-50.8 27-14.4 11.4-23.4 28.2-27 50.4-6 38.4-7.2 44.6-4 69.2 3.2 24.6 8.2 39.2 14.8 44 5.4 4.2 21 9.2 46.8 14.8 24 5.2 167.4 32.4 340 36-6.8-12-13-24.4-18.6-37.4C417 841 407.8 796 407.8 749.4z" p-id="31814"></path><path d="M407.8 749.4c0-46.6 9.2-91.6 27.2-134.2 17.4-41 42.2-78 73.8-109.6 31.6-31.6 68.6-56.4 109.6-73.8 15.2-6.4 30.6-11.6 46.2-15.8 2-6.8 4-13.6 5.8-20.6 6-1.8 11.6-5 17-9.8 4.8-4.2 9.2-10 13-17.6 4-7.4 6.8-17.6 8.6-30.2 1.2-9.6 1-17.6-0.4-24.2-1.6-6.6-3.4-12-5.8-16.2-2.4-4.8-5.8-8.4-9.8-10.8 0.6-24-1-48-4.6-72-3-20.4-8.2-42.2-15.8-65.2-7.4-23-18.8-44.2-33.8-63.4-6.6-8.4-15.2-16.6-26-24.8-10.8-8-23-15.4-36.8-22-13.8-6.6-28.6-12-44.6-16.2s-32.6-6.2-50-6.2c-13.8 0-28 1.2-42.8 3.6-14.6 2.4-29.2 6.6-43.6 12.6-14.4 6-28.6 14.2-42.8 24.8-14 10.4-26.8 23.8-38.2 40-12 17.4-21.2 36.8-27.4 58.4-6.2 21.6-10.6 42-13 61.2-3 22.8-4.2 45.6-3.6 68.4-4.8 6-8.4 12.2-10.8 18.8-2.4 6-4 13-5 21.2-0.8 8 0.2 17.2 3.2 27.4 3 10.2 6.6 18 10.8 23.4 4.2 5.4 8 9.6 11.6 12.6 4.2 3 8.4 5 12.6 6.2 3 9.6 6 18.8 9 27.8 3 7.8 6.2 15.4 9.8 23 3.6 7.4 7.8 13.4 12.6 17.6 10.2 8.4 19.4 16.4 27.4 24.2 8 7.8 12.8 18.8 14 33.2 0.6 9 1 17.4 1 25.2 0 7.8-1.4 15.2-4 22.4-2.8 7.2-7.4 14.4-14.4 21.6-6.8 7.2-16.6 14.6-29.2 22.4-15.6 10.2-33.8 18-54.4 23.4-20.6 5.4-111.2 36.6-130.6 43.2-19.4 6.6-36.4 15.6-50.8 27-14.4 11.4-23.4 28.2-27 50.4-6 38.4-7.4 44.6-4 69.2 3.2 24.6 8.2 39.2 14.8 44 5.4 4.2 21 9.2 46.8 14.8 24 5.4 167.6 32.4 340.2 36-7-12-13-24.6-18.6-37.4C417 841 407.8 796 407.8 749.4z" p-id="31815"></path><path d="M1022 717.6c-2.2-12-13.8-24.2-25.8-27l-9-2c-21-6.4-39.8-20.4-51.6-40.8-11.8-20.6-14.8-44.2-9.6-65.6l0 0 2.8-8.4c3.6-11.6-1-27.8-10.4-35.8 0 0-8.4-7.2-32.2-20.8-23.8-13.6-34-17.4-34-17.4-11.6-4.2-27.8-0.2-36.2 8.8l-6.2 6.8c-16 15.2-37.6 24.4-61.4 24.4s-45.6-9.2-61.6-24.6l-6-6.4c-8.4-9-24.6-13-36.2-8.8 0 0-10.4 3.8-34.2 17.4-23.8 13.8-32.2 21-32.2 21-9.4 7.8-14 23.8-10.4 35.6l2.6 8.6c5 21.6 2.4 44.8-9.6 65.6-11.8 20.6-30.8 34.8-52 41l-8.6 2c-11.8 2.8-23.6 14.8-25.8 27 0 0-2 10.8-2 38.2 0 27.4 2 38.2 2 38.2 2.2 12.2 13.8 24.2 25.8 27l8.4 2 0 0c21.2 6.2 40.2 20.4 52.2 41 11.8 20.6 14.8 44.2 9.6 65.6l0 0-2.4 8.4c-3.6 11.6 1 27.8 10.4 35.8 0 0 8.4 7.2 32.2 20.8 23.8 13.8 34 17.4 34 17.4 11.6 4.2 27.8 0.2 36.2-8.8l6-6.4c16.2-15.2 37.8-24.6 61.6-24.6 23.8 0 45.6 9.4 61.6 24.6l0 0 6 6.4c8.4 9 24.6 13 36.2 8.8 0 0 10.4-3.8 34.2-17.4 23.8-13.8 32.2-20.8 32.2-20.8 9.4-7.8 14-24 10.4-35.8l-2.6-8.6c-5-21.4-2.4-44.8 9.6-65.4 11.8-20.6 31-34.8 52.2-41l0 0 8.4-2c11.8-2.8 23.6-14.8 25.8-27 0 0 2-10.8 2-38.2C1023.8 728.4 1022 717.6 1022 717.6L1022 717.6zM748.2 866c-60.6 0-110-49.2-110-110 0-60.6 49.2-109.8 110-109.8 60.6 0 110 49.2 110 110C858.2 816.8 809 866 748.2 866L748.2 866z" p-id="31816"></path></svg>