<?xml version="1.0" standalone="no"?><!DOCTYPE svg PUBLIC "-//W3C//DTD SVG 1.1//EN" "http://www.w3.org/Graphics/SVG/1.1/DTD/svg11.dtd"><svg class="icon" width="200px" height="200.00px" viewBox="0 0 1024 1024" version="1.1" xmlns="http://www.w3.org/2000/svg"><path fill="#333333" d="M741.2 410.2c-4 0-7.9 0.4-11.9 0.6 0.3-5 0.8-9.9 0.8-14.9 0-120.5-97.7-218.1-218.1-218.1s-218.1 97.7-218.1 218.1c0 5 0.4 10 0.8 14.9-3.9-0.2-7.9-0.6-11.9-0.6-120.5 0-218.1 97.7-218.1 218.1 0 113.9 87.3 207.2 198.5 217.1 5.9 0.6 11.8 1 17.8 1h190.6V700.9h-78c-15.8 0-25.4-17.6-16.8-30.8l119.7-184.8c7.9-12.2 25.7-12.2 33.6 0L649.8 670c8.6 13.3-0.9 30.8-16.8 30.8h-81.4v145.5H748c17.6 0 34.5-2.8 50.4-7.8 92.7-25.2 160.9-109.6 160.9-210.3 0-120.4-97.6-218-218.1-218z" /></svg>