<?xml version="1.0" standalone="no"?><!DOCTYPE svg PUBLIC "-//W3C//DTD SVG 1.1//EN" "http://www.w3.org/Graphics/SVG/1.1/DTD/svg11.dtd"><svg class="icon" width="200px" height="200.00px" viewBox="0 0 1024 1024" version="1.1" xmlns="http://www.w3.org/2000/svg"><path fill="#333333" d="M736 101.312l-448 0c-123.264 0-224 100.8-224 224l0 149.376c0 123.2 100.736 224 224 224l37.312 0 0 224 255.936-224L736 698.688c123.2 0 224-100.8 224-224L960 325.312C960 202.112 859.2 101.312 736 101.312M287.936 474.688c-41.28 0-74.624-33.408-74.624-74.688 0-41.216 33.344-74.688 74.624-74.688S362.624 358.784 362.624 400C362.624 441.28 329.216 474.688 287.936 474.688M511.936 474.688c-41.28 0-74.624-33.408-74.624-74.688 0-41.216 33.344-74.688 74.624-74.688S586.624 358.784 586.624 400C586.624 441.28 553.216 474.688 511.936 474.688M736 474.688c-41.344 0-74.688-33.408-74.688-74.688 0-41.216 33.344-74.688 74.688-74.688 41.216 0 74.624 33.472 74.624 74.688C810.624 441.28 777.216 474.688 736 474.688" /></svg>