<?xml version="1.0" standalone="no"?><!DOCTYPE svg PUBLIC "-//W3C//DTD SVG 1.1//EN" "http://www.w3.org/Graphics/SVG/1.1/DTD/svg11.dtd"><svg class="icon" width="200px" height="157.90px" viewBox="0 0 1297 1024" version="1.1" xmlns="http://www.w3.org/2000/svg"><path fill="#333333" d="M666.318985 248.492326c42.63425 40.455858 85.2685 80.911716 128.05835 121.367574 25.829509-5.912779 52.903814-9.180368 80.600517-9.180368 42.323051 0 82.934508 7.468774 120.589576 21.005926-13.848351-13.537152-27.852302-26.918705-41.700653-40.455858-97.716456-94.448868-195.277313-188.586537-292.838171-283.035405-25.362711-24.429114-53.526212-42.478651-107.519222-42.323051-23.184318 0.311199-54.304209 20.072329-82.934508 46.991035-136.305121 127.90275-273.07704 255.338702-409.537761 382.930254-11.825558 11.047561-24.117915 21.628324-34.543078 33.765081-18.205136 21.161526-23.339918 45.901839-10.425164 71.420149 12.914755 25.362711 35.632275 39.366662 63.173378 32.987084 21.005926-4.823583 43.567847-14.781948 59.283392-29.097098 111.409208-101.762042 220.951223-205.391278 331.582434-308.086917 82.778909-76.86613 114.209998-76.243732 196.21091 1.711594z"  /><path fill="#333333" d="M716.26641 397.867801c-26.451907-24.429114-52.748215-48.858228-79.355721-73.287342-44.190245-40.767057-96.316061-40.300258-140.506306 0-110.631211 100.984045-221.106823 202.279289-330.804437 304.35253-8.40237 7.779973-14.470749 22.250722-14.781948 33.765081-1.555995 57.882997-0.622398 115.610394-1.089196 173.49339-0.466798 63.951375 14.937547 80.289318 80.289317 81.222915 55.082206 0.777997 110.008813 0.311199 165.09102 0 8.091172 0 16.026744-1.711594 27.541103-3.111989 0-53.370612-0.622398-104.562832 0.1556-155.599453 0.622398-42.63425 8.55797-50.103024 50.258623-50.258624 15.248746 0 30.497493-0.155599 45.901838-0.155599 3.111989-135.993922 82.62331-253.315909 197.300107-310.420909z"  /><path fill="#333333" d="M1112.267018 717.469078l67.530162-28.163501c6.379578-2.645191 9.958365-9.647166 8.402371-16.337943l-18.205136-76.86613c-1.711594-7.001975-8.246771-11.669959-15.404346-10.891961l-66.752165 7.157574c-5.290381 0.622398-10.580763-1.867193-13.381553-6.379577-6.223978-9.647166-12.914755-18.671934-20.383529-27.074305-3.578787-4.045586-4.512384-9.802766-2.489591-14.781948l24.584714-59.75019c2.645191-6.379578 0.311199-13.848351-5.601581-17.427139l-67.218963-41.545054c-6.068379-3.734387-14.003951-2.333992-18.516335 3.111989l-41.545054 51.659019c-3.423188 4.201185-8.869169 6.068379-14.159551 4.979182-13.537152-2.95639-27.385504-4.823583-41.389454-5.290381-5.445981-0.155599-10.113964-3.423188-12.292357-8.40237l-25.829509-57.571798c-2.80079-6.379578-9.958365-9.647166-16.649141-7.935572L756.255469 426.342501c-6.846376 1.867193-11.35876 8.55797-10.425163 15.715545l8.869169 63.640176c0.777997 5.445981-1.711594 10.736362-6.223978 13.692752-8.40237 5.75718-16.493542 11.825558-23.962316 18.360735-4.045586 3.578787-9.802766 4.512384-14.781948 2.489592l-56.638201-23.339918c-6.379578-2.645191-13.848351-0.311199-17.582738 5.75718L593.96524 590.033126c-3.734387 6.068379-2.333992 14.003951 3.111989 18.516335l48.702629 39.366661c4.201185 3.423188 6.068379 8.869169 4.979182 14.15955-2.80079 12.447956-4.823583 25.362711-5.60158 38.277466-0.311199 5.445981-3.734387 10.113964-8.71357 12.292357l-55.082206 22.873119c-6.379578 2.645191-9.958365 9.647166-8.40237 16.337943l18.360735 77.021729c1.711594 7.001975 8.246771 11.669959 15.404346 10.891962l61.772983-6.690777c5.445981-0.622398 10.736362 2.022793 13.537152 6.535177 7.001975 11.203161 14.781948 21.628324 23.339918 31.119891 3.734387 4.045586 4.667984 9.802766 2.645191 14.937547l-22.561921 54.771008c-2.645191 6.379578-0.311199 13.848351 5.60158 17.582738l67.218964 41.545054c6.068379 3.734387 14.003951 2.333992 18.516335-3.111989l39.522261-49.013828c3.423188-4.201185 8.713569-6.068379 14.003951-4.979182 12.292357 2.645191 24.895912 4.356785 37.499468 4.979182 5.445981 0.311199 10.269564 3.734387 12.447956 8.71357l23.184319 55.860203c2.645191 6.379578 9.647166 9.958365 16.493542 8.402371l76.86613-18.360736c7.001975-1.711594 11.51436-8.246771 10.891961-15.248746l-6.846376-64.573773c-0.622398-5.290381 1.867193-10.425163 6.379578-13.381553 10.269564-6.690776 19.761131-14.003951 28.4747-21.939523 4.045586-3.734387 9.958365-4.667984 14.937547-2.645191l57.571798 23.806717c6.379578 2.645191 13.848351 0.311199 17.582738-5.75718l41.389455-67.374563c3.734387-6.068379 2.333992-14.003951-3.11199-18.516335l-51.814617-41.700654c-4.201185-3.267589-6.068379-8.713569-4.979183-13.848351 3.111989-14.31515 4.823583-28.785899 4.979183-43.412247z m-231.531986 146.574684c-83.090108 0-150.464671-67.685762-150.464671-151.087068 0-83.401307 67.374563-151.087069 150.464671-151.087069 83.090108 0 150.464671 67.685762 150.464671 151.087069 0 83.401307-67.374563 151.087069-150.464671 151.087068z m0 0"  /><path fill="#333333" d="M880.735032 638.268956c-41.233855 0-74.687737 33.453882-74.687738 74.687738s33.453882 74.687737 74.687738 74.687737 74.687737-33.453882 74.687737-74.687737-33.453882-74.687737-74.687737-74.687738z m0 0"  /></svg>