<?xml version="1.0" standalone="no"?><!DOCTYPE svg PUBLIC "-//W3C//DTD SVG 1.1//EN" "http://www.w3.org/Graphics/SVG/1.1/DTD/svg11.dtd"><svg class="icon" width="200px" height="200.00px" viewBox="0 0 1024 1024" version="1.1" xmlns="http://www.w3.org/2000/svg"><path fill="#333333" d="M845.208 0H178.759c-30.771 0-51.264 20.558-51.264 51.445v854.23c0 10.28 10.246 20.575 20.493 25.715L660.694 1024h5.123c15.37 0 25.599-10.28 25.599-25.698V926.25H845.24c30.722 0 51.264-20.574 51.264-51.46V51.46C896.472 20.558 875.947 0 845.208 0zM537.542 566.055a51.445 51.445 0 1 1 51.264-51.46 51.33 51.33 0 0 1-51.264 51.46z m307.666 308.701H691.4V123.513c0-10.328-10.247-20.607-20.493-25.747L409.464 51.461h435.744z" /></svg>