<?xml version="1.0" standalone="no"?><!DOCTYPE svg PUBLIC "-//W3C//DTD SVG 1.1//EN" "http://www.w3.org/Graphics/SVG/1.1/DTD/svg11.dtd"><svg class="icon" width="200px" height="167.32px" viewBox="0 0 1224 1024" version="1.1" xmlns="http://www.w3.org/2000/svg"><path d="M997.653516 584.891938l68.500858 147.540309 12.295026-5.269297-8.782162-10.538593-1.756432 1.756432 8.782161 10.538594 7.025729-10.538594c-22.833619-12.295026-49.180103-19.320755-77.283018-19.320755-47.423671 0-100.116638 15.80789-159.835335 47.423671-59.718696 31.61578-122.950257 75.526587-191.451115 137.001715C540.981132 983.602058 414.51801 1001.166381 340.747856 1001.166381c-35.128645 0-59.718696-3.512864-63.231561-5.269297l-1.756432 12.295026 8.782161-10.538594-3.512864-1.756432-8.782162 10.538594 12.295026-5.269297L79.039451 567.327616l-12.295026 5.269297 12.295026 5.269296 1.756432-1.756432-12.295025-5.269297 1.756432 12.295026 107.142367-29.859348-7.025729-24.590052-112.411664 31.615781-3.512864 8.782161-1.756433 3.512865 210.77187 440.864494 3.512865 3.512864 1.756432 1.756432h3.512864c5.269297 1.756432 29.859348 5.269297 68.500858 5.269297 79.039451 0 212.528302-17.564322 331.965695-124.70669 66.744425-57.962264 129.975986-103.629503 186.181818-131.732418 56.205832-29.859348 107.142367-43.910806 147.540309-43.910806 24.590051 0 45.667238 5.269297 64.987993 15.80789l8.782161 5.269297 8.782161-8.782162 7.025729-7.025728-73.770154-156.32247-24.590052 12.295025z" fill="#40220F" /><path d="M346.017153 807.958834c1.756432 3.512864 3.512864 5.269297 7.025729 5.269296 26.346484 3.512864 159.835334 17.564322 302.106346-66.744425 0 0 29.859348-15.80789 110.655232-84.308748 0 0 196.720412-194.963979 381.145797-129.975986 3.512864 1.756432 7.025729-1.756432 5.269297-5.269297L936.178388 66.744425S807.958834 22.833619 685.008576 119.437393c0 0-182.668954 175.643225-532.198971 256.439108-5.269297 1.756432-8.782161 7.025729-5.269296 12.295026L346.017153 807.958834z" fill="#F8B62D" /><path d="M346.017153 807.958834l-12.295026 5.269296c3.512864 7.025729 8.782161 10.538593 15.80789 12.295026 8.782161 1.756432 26.346484 3.512864 52.692968 3.512865 59.718696 0 156.32247-10.538593 258.19554-72.013723l-7.025729-10.538593 5.269297 12.295026c1.756432 0 31.61578-17.564322 112.411663-86.06518l1.756433-1.756433c7.025729-7.025729 45.667238-42.154374 98.360206-75.526586 52.692967-33.372213 121.193825-63.231561 191.451114-63.231561 24.590051 0 50.936535 3.512864 75.526587 12.295026 1.756432 0 3.512864 1.756432 5.269297 1.756432 3.512864 0 8.782161-1.756432 10.538593-3.512865 3.512864-3.512864 5.269297-7.025729 5.269297-12.295025 0-1.756432 0-5.269297-1.756432-7.025729l-210.77187-467.210978-5.269297-1.756432c-1.756432 0-31.61578-10.538593-77.283018-10.538594-50.936535 0-119.437393 12.295026-186.181819 64.987993l-5.269296 3.512865v7.025729h12.295025l-12.295025-5.269297v5.269297h12.295025l-12.295025-5.269297 12.295025 5.269297-10.538593-7.025729s0 1.756432-1.756432 1.756432l12.295025 5.269297-10.538593-7.025729 10.538593 7.025729-8.782161-8.782161-1.756432 1.756432 10.538593 7.025729-8.782161-8.782161 5.269297 5.269296-5.269297-5.269296 5.269297 5.269296-5.269297-5.269296s-1.756432 1.756432-3.512864 1.756432c-24.590051 22.833619-203.746141 175.643225-523.41681 249.413379-10.538593 1.756432-17.564322 12.295026-17.564322 21.077187 0 3.512864 0 7.025729 1.756432 8.782161L333.722127 811.471698l12.295026-3.512864 12.295025-5.269297L158.078902 381.145798l-3.512864 1.756432h5.269296v-1.756432l-3.512864 1.756432h5.269297-7.025729l1.756432 3.512864c1.756432 1.756432 1.756432 0 1.756432-3.512864h-3.512864l1.756432 3.512864c177.399657-40.397942 310.888508-105.385935 400.466552-159.835334 45.667238-26.346484 79.039451-52.692967 101.873071-70.25729 12.295026-8.782161 19.320755-15.80789 26.346483-21.077187 3.512864-1.756432 5.269297-5.269297 7.025729-5.269297l1.756433-1.756432V122.950257v-5.269296H685.008576l8.782162 10.538593C755.265866 82.552316 816.740995 70.25729 864.164666 70.25729c21.077187 0 38.641509 1.756432 50.936535 5.269297 5.269297 1.756432 10.538593 1.756432 14.051458 3.512864h1.756432l3.512864-12.295026-12.295025 5.269297 216.041166 460.185249 8.782161-3.512865h-8.782161l1.756432 3.512865 8.782162-3.512865h-8.782162 10.538594l-8.782161-7.025729c-1.756432 1.756432-3.512864 5.269297-3.512865 7.025729h10.538594l-7.025729-7.025729 5.269296 7.025729v-8.782161c-1.756432 0-3.512864 0-5.269296 1.756432l5.269296 7.025729v-8.782161 7.025729l3.512865-8.782161h-3.512865v8.782161l3.512865-8.782161c-28.102916-10.538593-56.205832-14.051458-84.308748-14.051458-82.552316 0-159.835334 36.885077-216.041166 73.770154-56.205832 36.885077-93.090909 72.013722-93.09091 73.770155l8.782162 8.782161-8.782162-10.538594c-40.397942 35.128645-66.744425 56.205832-84.308747 68.500858-8.782161 7.025729-14.051458 10.538593-19.320755 12.295026-1.756432 1.756432-3.512864 1.756432-3.512865 1.756432l1.756433 3.512864-1.756433-1.756432 1.756433 3.512865-1.756433-3.512865c-96.603774 56.205832-189.694683 68.500858-244.144082 68.500858-24.590051 0-42.154374-1.756432-49.180103-3.512865v5.269297l3.512865-1.756432c0-1.756432-1.756432-1.756432-3.512865-1.756432v5.269296l3.512865-1.756432-14.051458 3.512865z" fill="#40220F" /><path d="M1060.885077 690.277873l-47.42367-100.116638c-3.512864-8.782161-12.295026-12.295026-21.077187-8.782161-33.372213 10.538593-122.950257 47.423671-252.926244 154.566037-165.104631 135.245283-351.286449 129.975986-396.953688 126.463122-7.025729 0-12.295026-3.512864-14.051458-10.538593l-147.540309-298.593482c-3.512864-7.025729-12.295026-12.295026-21.077187-8.782161l-77.283018 21.077187c-7.025729 3.512864-12.295026 14.051458-8.782162 24.590051l198.476844 416.274443 1.756433 1.756432c14.051458 1.756432 216.041166 36.885077 388.171526-115.924529 154.566038-137.001715 289.811321-196.720412 379.389365-175.643224 14.051458 1.756432 26.346484-12.295026 19.320755-26.346484z" fill="#F39800" /><path d="M346.017153 807.958834c1.756432 3.512864 3.512864 5.269297 7.025729 5.269296 26.346484 3.512864 159.835334 17.564322 302.106346-66.744425 0 0 29.859348-15.80789 110.655232-84.308748 0 0 196.720412-194.963979 381.145797-129.975986 3.512864 1.756432 7.025729-1.756432 5.269297-5.269297L936.178388 66.744425S807.958834 22.833619 685.008576 119.437393c0 0-182.668954 175.643225-532.198971 256.439108-5.269297 1.756432-8.782161 7.025729-5.269296 12.295026L346.017153 807.958834z" fill="#F8B62D" /><path d="M904.562607 284.542024l-40.397941 17.564322 17.564322 29.859349 40.397942-17.564323 12.295025 21.077187-40.397941 17.564323 26.346483 43.910806-21.077187 8.782161-26.346483-43.910806-42.154374 19.320755-12.295026-21.077187 42.154374-19.320755-17.564322-29.859348-42.154374 19.320754-12.295026-21.077187 36.885077-15.80789-103.629502-77.283019 24.590051-10.538593c49.180103 38.641509 80.795883 64.987993 93.090909 75.526587-1.756432-7.025729-3.512864-19.320755-7.025729-38.64151l-10.538593-70.25729 22.833619-10.538593 14.051458 117.68096 35.128645-15.80789 10.538593 21.077187z" fill="#DD603A" /><path d="M669.200686 402.222985c3.512864 1.756432 5.269297 3.512864 1.756432 7.025729-56.205832 54.4494-223.066895 110.655232-295.080617 133.48885-17.564322 5.269297-29.859348 8.782161-33.372213 8.782162h-1.756432c-8.782161 1.756432-15.80789 0-17.564323-1.756433-1.756432-1.756432 0-3.512864 1.756433-5.269296s5.269297-3.512864 10.538593-5.269297c0 0 12.295026-3.512864 29.859348-8.782161 38.641509-12.295026 108.898799-35.128645 172.130361-63.231561 28.102916-12.295026 56.205832-26.346484 77.283018-38.64151 10.538593-7.025729 21.077187-14.051458 28.102916-21.077187 3.512864-3.512864 14.051458-7.025729 22.83362-7.025729 0 0 1.756432 0 3.512864 1.756433zM597.186964 562.058319c1.756432 1.756432 1.756432 3.512864 0 7.025729-36.885077 38.641509-140.51458 63.231561-182.668954 73.770154-10.538593 1.756432-19.320755 3.512864-19.320754 3.512865h-1.756433c-5.269297 0-8.782161-1.756432-10.538593-3.512865l1.756432-3.512864c1.756432-1.756432 3.512864-1.756432 7.025729-3.512865 0 0 7.025729-1.756432 17.564323-3.512864 24.590051-5.269297 66.744425-15.80789 107.142367-29.859348 17.564322-7.025729 35.128645-14.051458 47.42367-22.833619 7.025729-3.512864 12.295026-8.782161 17.564323-14.051458 3.512864-3.512864 8.782161-3.512864 14.051458-3.512865 0-1.756432 1.756432-1.756432 1.756432 0zM346.017153 465.454545c-17.564322 5.269297-29.859348 8.782161-33.372213 8.782162h-1.756432c-8.782161 1.756432-15.80789 0-17.564323-1.756433-1.756432-1.756432 0-3.512864 1.756432-5.269296 1.756432-1.756432 5.269297-3.512864 10.538594-5.269297 0 0 12.295026-3.512864 29.859348-8.782161 38.641509-12.295026 108.898799-35.128645 172.13036-63.231561 28.102916-12.295026 56.205832-26.346484 77.283019-38.64151 10.538593-7.025729 21.077187-14.051458 28.102916-21.077187 3.512864-3.512864 14.051458-7.025729 22.833619-7.025729 1.756432 0 3.512864 0 5.269297 1.756433 3.512864 1.756432 5.269297 3.512864 1.756432 7.025729-59.718696 56.205832-226.57976 112.411664-296.837049 133.48885z" fill="#F39800" /><path d="M110.655232 31.61578L91.334477 133.488851 0 179.156089l100.116638 19.320755 45.667239 91.334477 19.320754-100.116638 91.334477-47.423671-100.116638-17.564322-45.667238-93.09091M379.389365 145.783877l-7.025729 38.641509-35.128645 19.320755 38.64151 7.025729 17.564322 35.128645 7.025729-38.64151 35.128645-19.320755-38.641509-7.025729-17.564323-35.128644M1066.154374 0l29.859348 84.308748L1046.833619 158.078902l82.552316-28.102916 73.770154 49.180103-28.102916-84.308748 49.180103-73.770154L1141.680961 49.180103 1066.154374 0" fill="#F9C97A" /><path d="M923.883362 509.365352c40.397942-17.564322 84.308748-29.859348 129.975986-31.615781 22.833619 0 22.833619-35.128645 0-35.128645-50.936535 1.756432-100.116638 15.80789-147.540309 36.885077-21.077187 7.025729-3.512864 38.641509 17.564323 29.859349zM871.190395 124.70669h12.295025c22.833619 0 22.833619-35.128645 0-35.128645h-12.295025c-21.077187 1.756432-21.077187 36.885077 0 35.128645zM751.753002 161.591767c12.295026-7.025729 22.833619-15.80789 36.885077-21.077187 8.782161-3.512864 17.564322-3.512864 26.346484-5.269297 22.833619-5.269297 12.295026-38.641509-8.782162-33.372213-10.538593 1.756432-19.320755 3.512864-29.859348 7.025729-15.80789 5.269297-29.859348 14.051458-42.154374 22.83362-19.320755 12.295026-1.756432 42.154374 17.564323 29.859348z" fill="#FFFFFF" /></svg>