<?xml version="1.0" standalone="no"?><!DOCTYPE svg PUBLIC "-//W3C//DTD SVG 1.1//EN" "http://www.w3.org/Graphics/SVG/1.1/DTD/svg11.dtd"><svg class="icon" width="200px" height="200.00px" viewBox="0 0 1024 1024" version="1.1" xmlns="http://www.w3.org/2000/svg"><path fill="#333333" d="M563.2 422.4c38.4-12.8 76.8-19.2 108.8-19.2h12.8c19.2-44.8 19.2-102.4 12.8-153.6C678.4 128 569.6 44.8 448 70.4c-115.2 19.2-211.2 108.8-192 230.4 6.4 25.6 19.2 64 32 96l-211.2 313.6c-12.8 12.8-12.8 32-12.8 51.2l6.4 51.2c-6.4-51.2 6.4 19.2 12.8 19.2h70.4c12.8 0 32-12.8 38.4-25.6l83.2-134.4 70.4 6.4L448 518.4c6.4-12.8 19.2-25.6 32-32 25.6-25.6 51.2-51.2 83.2-64z m-441.6 320l-12.8 6.4v-12.8l204.8-300.8 12.8 12.8-204.8 294.4zM428.8 192c32-51.2 96-64 140.8-25.6 44.8 32 57.6 96 25.6 147.2s-64 12.8-108.8-19.2C441.6 256 396.8 236.8 428.8 192zM736 512C614.4 512 512 614.4 512 736S614.4 960 736 960s224-102.4 224-224S857.6 512 736 512z m128 313.6c0 32-64 38.4-121.6 38.4-57.6 0-128-6.4-128-38.4v-6.4c0-25.6 44.8-51.2 83.2-64 0 0 12.8-6.4 6.4-25.6-19.2-19.2-32-51.2-32-83.2 0-44.8 32-70.4 64-70.4 38.4 0 64 25.6 64 70.4 0 32-12.8 64-32 83.2-6.4 19.2 6.4 25.6 6.4 25.6 38.4 12.8 83.2 38.4 83.2 64l6.4 6.4z" /></svg>