<?xml version="1.0" standalone="no"?><!DOCTYPE svg PUBLIC "-//W3C//DTD SVG 1.1//EN" "http://www.w3.org/Graphics/SVG/1.1/DTD/svg11.dtd"><svg t="1533274505119" class="icon" style="" viewBox="0 0 1024 1024" version="1.1" xmlns="http://www.w3.org/2000/svg" p-id="2322" xmlns:xlink="http://www.w3.org/1999/xlink" width="200" height="200"><defs><style type="text/css"></style></defs><path d="M113.682 364.351v595.33h797.404V364.35H113.682z m772.803 570.75H138.252V388.92h748.234V935.1zM784.52 347.851h47.002L568.635 137.924l-18.164 22.691zM474.293 160.615l-18.15-22.69-262.91 209.924h47.001z m38.089-11.346c23.167 0 41.952-18.78 41.952-41.976 0-23.172-18.785-41.971-41.952-41.971-23.186 0-41.985 18.799-41.985 41.97 0 23.196 18.799 41.977 41.985 41.977zM176.634 428.895h671.495v461.671H176.634v-461.67z" p-id="2323"></path></svg>