<?xml version="1.0" standalone="no"?><!DOCTYPE svg PUBLIC "-//W3C//DTD SVG 1.1//EN" "http://www.w3.org/Graphics/SVG/1.1/DTD/svg11.dtd"><svg t="1533274545908" class="icon" style="" viewBox="0 0 1756 1024" version="1.1" xmlns="http://www.w3.org/2000/svg" p-id="3038" xmlns:xlink="http://www.w3.org/1999/xlink" width="342.96875" height="200"><defs><style type="text/css"></style></defs><path d="M664.221483 640.107473c0-245.610971 199.039463-444.650434 444.650434-444.650434 32.528408 0 64.053736 3.582424 94.575987 10.174083V174.965575C1203.447904 78.240134 1125.207769 0 1028.482329 0h-823.957459C107.799429 0 29.559295 78.240134 29.559295 174.965575v497.240414c0 96.725441 78.240134 174.965575 174.965575 174.965576h73.224741L249.663409 1009.240414l295.048419-162.212146h170.523369c-32.528408-61.760985-51.013714-132.119787-51.013714-206.920795zM323.747932 487.209628c-44.13546 0-79.959698-35.824237-79.959698-79.959698 0-44.13546 35.824237-79.959698 79.959698-79.959698 44.13546 0 79.959698 35.824237 79.959697 79.959698C403.564332 451.38539 367.740095 487.209628 323.747932 487.209628z m221.966974-79.959698c0-44.13546 35.824237-79.959698 79.959698-79.959698s79.959698 35.824237 79.959698 79.959698c0 44.13546-35.824237 79.959698-79.959698 79.959698s-79.959698-35.824237-79.959698-79.959698z" fill="" p-id="3039"></path><path d="M1405.353305 641.540442l84.258607-35.107752c8.024629-3.29583 12.466835-12.036944 10.460677-20.491464l-22.784215-96.008956c-2.006157-8.741114-10.31738-14.472992-19.201791-13.469913l-83.398825 8.88441c-6.59166 0.716485-13.183319-2.436048-16.765743-8.024629-7.738035-12.036944-16.192555-23.357403-25.36356-33.81808-4.442205-5.015393-5.731878-12.180241-3.152533-18.485306l30.665547-74.514414c3.29583-8.024629 0.286594-17.338931-7.02155-21.781136L1269.077907 276.706409c-7.594738-4.728799-17.482228-3.009236-23.214106 4.012315l-51.873496 64.483627c-4.155612 5.301987-11.033865 7.594738-17.625525 6.161769-16.90904-3.725721-34.247971-6.018472-51.730198-6.734957-6.734957-0.286594-12.610132-4.298908-15.476071-10.460677L1076.916697 262.233417c-3.582424-7.881332-12.323538-12.180241-20.778057-9.887489L960.846168 277.996082c-8.597817 2.292751-14.186398 10.747271-13.040022 19.631682l11.033865 79.38651c0.859782 6.734957-2.006157 13.326616-7.738035 17.195634-10.603974 7.164847-20.634761 14.759586-29.949062 22.927512-5.015393 4.442205-12.180241 5.588581-18.485307 3.009235L832.022211 391.057375c-8.024629-3.29583-17.338931-0.286594-21.924433 7.164847l-51.730199 84.115309c-4.728799 7.594738-3.009236 17.482228 4.012315 23.070809l60.901203 49.150854c5.301987 4.298908 7.594738 11.177162 6.161769 17.768822-3.582424 15.619367-5.875175 31.668626-6.878254 47.717884-0.429891 6.734957-4.585502 12.753428-10.890568 15.332773l-68.782535 28.516093c-8.024629 3.29583-12.466835 12.036944-10.460678 20.491464l22.927512 96.152253c2.006157 8.741114 10.31738 14.472992 19.201791 13.469913l77.093759-8.311223c6.734957-0.716485 13.326616 2.436048 16.90904 8.311223 8.741114 13.899804 18.34201 26.939826 29.089281 38.833474 4.585502 5.015393 5.875175 12.323538 3.152533 18.628603L872.718545 919.966415c-3.29583 8.024629-0.286594 17.338931 7.02155 21.924433l83.972012 51.730199c7.594738 4.728799 17.482228 3.009236 23.070809-4.012315l49.294151-61.187797c4.155612-5.15869 10.890568-7.594738 17.482228-6.161769 15.476071 3.29583 31.095438 5.301987 46.858102 6.161769 6.878254 0.286594 12.896725 4.585502 15.476071 10.890568l28.945983 69.785614c3.29583 8.024629 12.036944 12.466835 20.491464 10.460678l96.008956-22.927512c8.741114-2.006157 14.472992-10.31738 13.469913-19.201792l-8.597816-80.676182c-0.716485-6.59166 2.292751-13.040022 7.881332-16.765743 12.753428-8.311223 24.647075-17.482228 35.68094-27.369717 5.15869-4.585502 12.323538-5.875175 18.7719-3.29583l71.935069 29.662468c8.024629 3.29583 17.338931 0.286594 21.924433-7.164847l51.730199-84.115309c4.728799-7.594738 3.009236-17.482228-4.012315-23.070809l-64.626924-52.16009c-5.15869-4.155612-7.594738-10.890568-6.305065-17.338931 3.869018-17.482228 5.875175-35.537643 6.161768-53.593059zM1116.180062 824.38735c-103.746991 0-187.862301-84.401903-187.862301-188.578786 0-104.176882 84.115309-188.578785 187.862301-188.578785 103.746991 0 187.862301 84.401903 187.8623 188.578785 0 104.176882-84.115309 188.578785-187.8623 188.578786z m0 0" fill="" p-id="3040"></path><path d="M1116.180062 542.52225c-51.443605 0-93.286314 41.699412-93.286314 93.286314 0 51.443605 41.699412 93.286314 93.286314 93.286314 51.443605 0 93.143017-41.699412 93.143017-93.286314 0.143297-51.443605-41.556115-93.286314-93.143017-93.286314z m0 0" fill="" p-id="3041"></path></svg>