<?xml version="1.0" standalone="no"?><!DOCTYPE svg PUBLIC "-//W3C//DTD SVG 1.1//EN" "http://www.w3.org/Graphics/SVG/1.1/DTD/svg11.dtd"><svg class="icon" width="200px" height="200.00px" viewBox="0 0 1024 1024" version="1.1" xmlns="http://www.w3.org/2000/svg"><path fill="#333333" d="M485.12 485.12V263.488h-127.6a32 32 0 0 1-21.28-55.888L488.384 72a32 32 0 0 1 42.208-0.32l156.96 135.6a32 32 0 0 1-20.912 56.224H533.6v221.6h226.88v-127.6a32 32 0 0 1 56.224-20.912l135.6 156.96a32 32 0 0 1-0.32 42.208L816.368 687.92a32 32 0 0 1-55.888-21.312V533.616H533.6v226.88h132.864a32 32 0 0 1 21.28 55.888L535.616 952a32 32 0 0 1-42.208 0.32l-156.96-135.6a32 32 0 0 1 20.912-56.224h127.744v-226.88H263.52V666.48a32 32 0 0 1-55.888 21.28L72 535.616a32 32 0 0 1-0.32-42.208l135.6-156.96a32 32 0 0 1 56.224 20.912v127.744h221.6z" /></svg>