<?xml version="1.0" standalone="no"?><!DOCTYPE svg PUBLIC "-//W3C//DTD SVG 1.1//EN" "http://www.w3.org/Graphics/SVG/1.1/DTD/svg11.dtd"><svg t="1533277578698" class="icon" style="" viewBox="0 0 1024 1024" version="1.1" xmlns="http://www.w3.org/2000/svg" p-id="3211" xmlns:xlink="http://www.w3.org/1999/xlink" width="200" height="200"><defs><style type="text/css"></style></defs><path d="M946.494789 720.386074c0-16.402575-10.831696-24.808012-28.849049-26.340925-11.392468 0.078795-22.222117-5.01113-29.332049-13.900591-7.111978-8.890484-9.777691-20.605294-7.27366-31.67542 6.869455-31.029714 5.253654-35.394115-23.916713-51.475372l-18.590403-10.263761c-16.641005-13.895475-41.370223-11.796674-55.512315 4.688789-21.416775 16.72594-31.03176 16.404622-51.475372 0-13.979386-16.646122-38.70451-18.99154-55.516408-5.251607l-31.027667 17.049304c-14.062274 6.383384-20.689205 22.544459-15.19098 36.931121 9.613962 31.029714-4.365424 50.90846-37.821397 54.30072-13.979386 1.535983-23.271006 8.969279-23.918759 21.412682a588.133981 588.133981 0 0 0 0 73.53683c0 15.838733 10.587126 23.918759 27.959795 25.452695 11.311627-0.078795 22.062482 4.850471 29.332049 13.495362 7.271614 8.647961 10.426467 20.043499 8.489348 31.193443-6.223748 32.564673-6.223748 35.957957 24.804942 52.766784 6.547113 3.716648 13.009292 7.756661 19.880793 11.150968 15.921621 10.830673 37.413098 8.002254 49.938366-6.54302 23.920806-20.446681 31.03176-20.202111 56.161091 0 5.89936 3.87833 11.880585 7.597025 18.020422 11.06808 7.755638 4.364401 17.21508 4.284583 24.809035-0.401136 16.810874-10.262738 33.211403-19.962657 48.564066-30.789237 4.609994-3.314489 7.919367-8.242731 8.889461-13.81668 0.811482-4.688789 0.404206-9.537214-1.292436-14.141068-11.473309-27.959795 6.869455-52.446489 39.113833-55.516408 13.332656 0 22.300912-8.405437 22.946618-20.202111 1.535983-24.24417 1.856277-48.486294 0.807389-72.729442z m-137.293923 86.220711a74.442456 74.442456 0 0 1-52.925397 21.820981c-30.224372 0-57.536414-18.182105-69.094658-46.140877-11.55108-27.960819-5.16872-60.122309 16.243963-81.456196 21.414729-21.412682 53.576219-27.79709 81.533968-16.23987 27.961842 11.553127 46.142923 38.866193 46.142923 69.089542-0.001023 19.798928-7.838525 38.867216-21.900799 52.92642zM293.445332 285.047058h-3.607154c-24.39255 0-44.166919-19.774369-44.166919-44.166919V136.990001c0-24.39255 19.774369-44.166919 44.166919-44.166919h3.607154c24.39255 0 44.166919 19.774369 44.166919 44.166919v103.890138c0.001023 24.39255-19.773346 44.166919-44.166919 44.166919zM609.488335 285.047058h-3.607154c-24.39255 0-44.166919-19.774369-44.166919-44.166919V136.990001c0-24.39255 19.774369-44.166919 44.166919-44.166919h3.607154c24.39255 0 44.166919 19.774369 44.166919 44.166919v103.890138c0.001023 24.39255-19.773346 44.166919-44.166919 44.166919z" p-id="3212"></path><path d="M760.691035 195.947787H678.926824v44.932352c0 38.287001-31.147394 69.437465-69.437466 69.437466h-3.608177c-38.289048 0-69.437465-31.150464-69.437466-69.437466v-44.932352H362.883821v44.932352c0 38.287001-31.147394 69.437465-69.437466 69.437466h-3.608177c-38.289048 0-69.437465-31.150464-69.437466-69.437466v-44.932352h-91.768053c-28.457122 0-51.741431 23.283286-51.741431 51.741432v596.063581c0 28.457122 23.284309 51.741431 51.741431 51.741431h464.158389c-43.11803-37.105083-70.425979-92.069929-70.42598-153.418159 0-111.73992 90.583065-202.322985 202.324009-202.322985 31.43699 0 61.199851 7.170307 87.741343 19.964704V247.689219c0.002047-28.457122-23.282263-51.741431-51.739385-51.741432zM444.994933 704.951547H277.18602c-18.383696 0-33.301454-12.847609-33.301454-28.686343 0-15.83771 14.917758-28.683273 33.301454-28.683273h167.808913c18.383696 0 33.296337 12.847609 33.296338 28.683273 0 15.839757-14.912641 28.686343-33.296338 28.686343z m133.958968-130.744763H276.138154c-16.624632 0-30.092365-12.768815-30.092365-28.526707 0-15.754822 13.46671-28.523637 30.092365-28.523637h302.814724c16.628726 0 30.094412 12.768815 30.094412 28.523637 0 15.678074-13.46671 28.526707-30.093389 28.526707z m33.376155-130.665969H279.154861c-18.291598 0-33.109072-12.768815-33.109072-28.52773 0-15.755846 14.81645-28.522614 33.109072-28.522614H612.330056c18.294668 0 33.111119 12.768815 33.111119 28.522614 0 15.759939-14.81645 28.52773-33.111119 28.52773z" p-id="3213"></path></svg>