<?xml version="1.0" standalone="no"?><!DOCTYPE svg PUBLIC "-//W3C//DTD SVG 1.1//EN" "http://www.w3.org/Graphics/SVG/1.1/DTD/svg11.dtd"><svg class="icon" width="200px" height="200.00px" viewBox="0 0 1024 1024" version="1.1" xmlns="http://www.w3.org/2000/svg"><path fill="#333333" d="M480 64C214.912 64 0 278.848 0 544 0 809.152 214.912 1024 480 1024c265.152 0 480-214.848 480-480C960 278.848 745.152 64 480 64zM480 960C250.624 960 64 773.376 64 544 64 314.624 250.624 128 480 128S896 314.624 896 544C896 773.376 709.376 960 480 960zM714.304 393.344l-297.472 297.472-170.24-170.24c-12.48-12.48-32.768-12.48-45.248 0s-12.48 32.768 0 45.248l192.832 192.896c6.272 6.272 14.464 9.344 22.656 9.344s16.384-3.136 22.656-9.344l320.064-320.128c12.48-12.48 12.48-32.768 0-45.248S726.784 380.864 714.304 393.344z" /></svg>