<?xml version="1.0" standalone="no"?><!DOCTYPE svg PUBLIC "-//W3C//DTD SVG 1.1//EN" "http://www.w3.org/Graphics/SVG/1.1/DTD/svg11.dtd"><svg t="1533274865962" class="icon" style="" viewBox="0 0 1024 1024" version="1.1" xmlns="http://www.w3.org/2000/svg" p-id="9506" xmlns:xlink="http://www.w3.org/1999/xlink" width="200" height="200"><defs><style type="text/css"></style></defs><path d="M844.665589 150.830217H179.223894c-63.370283 0-114.837468 53.340859-114.837468 118.915344v387.354141c0 31.630395 12.564154 63.590294 34.274618 87.505983 22.592554 24.796756 52.129264 38.46301 83.09758 38.46301h222.661195l0.220011 0.220011s82.287121 71.475891 94.520747 84.149539l0.330528 0.330528c3.306302 3.526313 7.825222 5.399987 12.564154 5.399987s9.257851-1.984191 12.564153-5.399987l0.110517-0.110517c0.88209-0.991584 90.994434-84.590584 90.7734-84.36955l0.220011-0.220011h226.518036c31.078833 0 60.505026-13.666254 83.09758-38.46301 21.820981-23.915689 34.274618-55.875588 34.274618-87.505983V269.745561c-0.110517-65.574484-51.577702-118.915343-114.947985-118.915344zM290.204521 539.080775c-32.732495 0-59.292408-27.552519-59.292407-61.386092s26.670429-61.386092 59.292407-61.386092 59.292408 27.552519 59.292408 61.386092-26.560936 61.386092-59.292408 61.386092z m221.850738 0c-32.732495 0-59.292408-27.552519-59.292408-61.386092s26.670429-61.386092 59.292408-61.386092c32.732495 0 59.292408 27.552519 59.292407 61.386092s-26.560936 61.386092-59.292407 61.386092z m221.850737 0c-32.732495 0-59.292408-27.552519-59.292408-61.386092s26.670429-61.386092 59.292408-61.386092c32.732495 0 59.292408 27.552519 59.292407 61.386092s-26.560936 61.386092-59.292407 61.386092z" p-id="9507"></path></svg>