<?xml version="1.0" standalone="no"?><!DOCTYPE svg PUBLIC "-//W3C//DTD SVG 1.1//EN" "http://www.w3.org/Graphics/SVG/1.1/DTD/svg11.dtd"><svg class="icon" width="200px" height="200.00px" viewBox="0 0 1024 1024" version="1.1" xmlns="http://www.w3.org/2000/svg"><path fill="#333333" d="M729.449497 847.51652 294.549479 847.51652c-30.022781 0-54.359049 25.048489-54.359049 55.966663 0 30.90487 24.336268 55.957453 54.359049 55.957453l434.900018 0c30.026874 0 54.363142-25.052582 54.363142-55.957453C783.813662 872.565009 759.476371 847.51652 729.449497 847.51652zM783.813662 64.037479 240.186338 64.037479c-60.049654 0-108.727307 50.119491-108.727307 111.932302l0 503.651868c0 61.822021 48.677653 111.932302 108.727307 111.932302l543.627325 0c60.049654 0 108.727307-50.110281 108.727307-111.932302L892.540969 175.96978C892.540969 114.15697 843.862293 64.037479 783.813662 64.037479zM332.921415 243.12425c37.09178 0 67.154469 30.071899 67.154469 67.154469 0 37.086663-30.062689 67.154469-67.154469 67.154469-37.086663 0-67.154469-30.066783-67.154469-67.154469C265.767969 273.196149 295.834752 243.12425 332.921415 243.12425zM713.462385 601.275279 310.541709 601.275279c-24.726148 0-44.773739-20.038382-44.773739-44.76453 0-24.726148 20.047592-44.76453 44.773739-44.76453l402.920676 0c24.726148 0 44.769646 20.038382 44.769646 44.76453C758.232031 581.236897 738.188532 601.275279 713.462385 601.275279zM691.077561 377.433188c-37.086663 0-67.158562-30.066783-67.158562-67.154469 0-37.08257 30.071899-67.154469 67.158562-67.154469 37.09178 0 67.154469 30.071899 67.154469 67.154469C758.232031 347.365382 728.169341 377.433188 691.077561 377.433188z" /></svg>