<?xml version="1.0" standalone="no"?><!DOCTYPE svg PUBLIC "-//W3C//DTD SVG 1.1//EN" "http://www.w3.org/Graphics/SVG/1.1/DTD/svg11.dtd"><svg class="icon" width="200px" height="170.67px" viewBox="0 0 1200 1024" version="1.1" xmlns="http://www.w3.org/2000/svg"><path fill="#333333" d="M565.10923 987.453793v-70.832552c11.652414 0.953379 23.410759 1.447724 35.310345 1.447725 234.001655 0 423.724138-189.722483 423.724138-423.724138 0-43.537655-6.567724-85.556966-18.749793-125.104552C952.004679 196.325517 790.883575 70.62069 600.419575 70.62069 366.41792 70.62069 176.695437 260.343172 176.695437 494.344828c0 36.581517 4.625655 72.068414 13.347311 105.931034H117.444679A496.180966 496.180966 0 0 1 106.074748 494.344828C106.074748 221.325241 327.399989 0 600.419575 0s494.344828 221.325241 494.344828 494.344828-221.325241 494.344828-494.344828 494.344827c-11.864276 0-23.657931-0.423724-35.310345-1.235862zM600.419575 847.448276c-195.019034 0-353.103448-158.084414-353.103448-353.103448S405.400541 141.241379 600.419575 141.241379s353.103448 158.084414 353.103448 353.103449-158.084414 353.103448-353.103448 353.103448z m-197.208276-242.440828c39.547586 70.444138 115.111724 114.052414 197.172966 114.052414 82.167172 0 157.766621-43.678897 197.243586-114.228965a35.310345 35.310345 0 0 0-61.616552-34.498207c-26.906483 48.09269-78.848 78.106483-135.627034 78.106482-56.708414 0-108.649931-29.978483-135.591724-77.965241a35.310345 35.310345 0 0 0-61.581242 34.533517zM1062.314196 317.793103a141.241379 141.241379 0 0 1 21.53931 280.364138c7.13269-33.474207 10.910897-68.184276 10.910897-103.812413 0-62.181517-11.475862-121.714759-32.450207-176.551725zM117.020954 598.157241A141.27669 141.27669 0 0 1 138.560265 317.793103 493.179586 493.179586 0 0 0 106.074748 494.344828c0 35.628138 3.778207 70.338207 10.946206 103.812413zM529.798886 882.758621l141.241379 0 0 141.241379-141.241379 0 0-141.241379Z" /></svg>