<?xml version="1.0" standalone="no"?><!DOCTYPE svg PUBLIC "-//W3C//DTD SVG 1.1//EN" "http://www.w3.org/Graphics/SVG/1.1/DTD/svg11.dtd"><svg class="icon" width="200px" height="200.00px" viewBox="0 0 1024 1024" version="1.1" xmlns="http://www.w3.org/2000/svg"><path fill="#333333" d="M660.27231 714.452205c-33.952734 27.451146-71.51746 48.761905-112.69418 63.932275-41.17672 15.17037-84.881834 22.755556-131.837743 22.755556-109.082187-2.528395-199.74321-40.093122-272.344268-112.69418-72.601058-72.601058-110.165785-163.262081-112.69418-272.344268C33.591534 307.0194 71.156261 216.358377 143.757319 143.757319 215.997178 71.51746 307.0194 33.952734 415.740388 31.424339c109.082187 2.528395 199.74321 40.093122 272.344268 112.69418 72.601058 72.601058 110.165785 163.262081 112.69418 272.344268 0 46.955908-7.585185 90.661023-22.755556 131.837743-15.17037 41.17672-36.481129 78.380247-63.932275 111.610582l279.929453 279.929453-54.902293 54.902293L660.27231 714.452205zM415.740388 724.204586c87.04903-1.805996 160.011287-31.785538 217.803175-89.938624 58.153086-58.153086 88.132628-130.754145 89.938624-217.803175-1.805996-87.04903-31.785538-160.011287-89.938624-217.803175-58.153086-58.153086-130.754145-88.132628-217.803175-89.938624C328.691358 110.165785 256.0903 140.145326 197.937213 198.298413 139.784127 256.451499 109.804586 329.052557 107.998589 416.101587c2.528395 87.04903 32.869136 160.011287 90.299824 217.803175C256.0903 692.057848 328.691358 722.03739 415.740388 724.204586z" /></svg>