<?xml version="1.0" standalone="no"?><!DOCTYPE svg PUBLIC "-//W3C//DTD SVG 1.1//EN" "http://www.w3.org/Graphics/SVG/1.1/DTD/svg11.dtd"><svg t="1533274901485" class="icon" style="" viewBox="0 0 1024 1024" version="1.1" xmlns="http://www.w3.org/2000/svg" p-id="10106" xmlns:xlink="http://www.w3.org/1999/xlink" width="200" height="200"><defs><style type="text/css"></style></defs><path d="M379.004102 490.002444c-70.887892-70.897102-32.357503-171.227978-7.621958-218.486572-14.177578-7.815372-29.722361-12.204547-45.949722-12.204547-62.773699 0-120.12975 64.814272-120.12975 144.75989 0 51.069573 26.074095 95.90179 45.785985 121.660691l-0.413436 25.929802L90.920091 611.699977c-5.95798 4.235672-13.493976 11.240546-17.238437 21.253064l0 175.713348 118.709332-0.385805L192.390986 644.829091l189.816222-121.349591L379.004102 490.002444z" p-id="10107"></path><path d="M924.620845 614.796653c-1.269985-1.014146-2.551227-1.812364-3.779255-2.430471-0.223092-0.229232-0.46358-0.452323-0.75933-0.664158l-163.221238-60.040315-0.377618-25.931849c19.709843-25.754808 45.801335-70.590095 45.801335-121.659668 0-79.945618-57.347864-144.75989-120.122587-144.75989-16.225314 0-31.766003 4.390199-45.943581 12.204547 24.734522 47.258594 63.265934 147.58947-7.620934 218.486572l0.581266 33.475008L822.778472 644.829091l0 163.451493 117.685976 0.385805L940.464448 632.952017C941.355791 623.104259 931.154976 617.424632 924.620845 614.796653z" p-id="10108"></path><path d="M766.889914 676.477408c0-21.522207-16.487293-32.917279-25.275877-37.440514L566.939395 563.594043l0-35.401988c38.88754-29.201472 65.47843-83.274596 65.47843-145.33604 0-92.996481-59.318848-168.378954-132.352718-168.378954-73.034893 0-132.151117 75.382472-132.151117 168.378954 0 59.423231 24.028406 111.554025 60.869233 141.524037l0 40.522863-174.428013 76.250279c-9.701418 5.542498-24.103111 16.571209-24.103111 34.917941L230.252099 853.479162l537.095255-1.790874-0.249699-172.903212C767.01374 677.939784 766.889914 677.400475 766.889914 676.477408z" p-id="10109"></path></svg>