<?xml version="1.0" standalone="no"?><!DOCTYPE svg PUBLIC "-//W3C//DTD SVG 1.1//EN" "http://www.w3.org/Graphics/SVG/1.1/DTD/svg11.dtd"><svg class="icon" width="200px" height="200.00px" viewBox="0 0 1024 1024" version="1.1" xmlns="http://www.w3.org/2000/svg"><path fill="#333333" d="M918.742213 895.182123 106.652554 895.182123c-23.203468 0-42.004673-19.10001-42.004673-42.679032L64.647881 169.776731c0-23.577998 18.801205-42.680055 42.004673-42.680055 23.202445 0 42.004673 19.102057 42.004673 42.680055l0 540.484751 0 0 0 99.587136 770.084986 0c23.201421 0 42.002626 19.101033 42.002626 42.654472C960.744839 876.082112 941.943634 895.182123 918.742213 895.182123zM820.730968 767.17061l-84.010369 0c-23.200398 0-42.004673-19.104103-42.004673-42.680055L694.715927 425.806919c0-23.579021 18.804275-42.704614 42.004673-42.704614l84.010369 0c23.203468 0 42.004673 19.126616 42.004673 42.704614l0 298.683636C862.735641 748.066507 843.934436 767.17061 820.730968 767.17061zM582.705853 767.17061l-84.009346 0c-23.203468 0-42.005696-19.104103-42.005696-42.680055L456.690812 255.112282c0-23.577998 18.802228-42.680055 42.005696-42.680055l84.009346 0c23.201421 0 42.004673 19.102057 42.004673 42.680055l0 469.378274C624.709503 748.066507 605.906252 767.17061 582.705853 767.17061zM344.678692 767.17061l-84.010369 0c-23.202445 0-42.004673-19.104103-42.004673-42.680055l0-85.336574c0-23.575952 18.802228-42.680055 42.004673-42.680055l84.010369 0c23.202445 0 42.004673 19.104103 42.004673 42.680055l0 85.336574C386.683365 748.066507 367.881137 767.17061 344.678692 767.17061z" /></svg>