<?xml version="1.0" standalone="no"?><!DOCTYPE svg PUBLIC "-//W3C//DTD SVG 1.1//EN" "http://www.w3.org/Graphics/SVG/1.1/DTD/svg11.dtd"><svg class="icon" width="200px" height="200.00px" viewBox="0 0 1024 1024" version="1.1" xmlns="http://www.w3.org/2000/svg"><path fill="#333333" d="M512 512c125.675 0 227.556-101.88 227.556-227.556C739.556 158.77 637.676 56.89 512 56.89c-125.675 0-227.556 101.88-227.556 227.555C284.444 410.12 386.324 512 512 512zM597.323 967.111H170.667c-31.42 0-56.89-25.47-56.89-56.889V768c0-109.966 89.146-199.111 199.112-199.111h260.856c-3.145 8.897-4.856 18.47-4.856 28.444 0 47.129 38.205 85.334 85.333 85.334h113.754c26.256 34.986 67.944 56.889 113.802 56.889 8.905 0 17.62-0.819 26.072-2.385A200.624 200.624 0 0 1 910.222 768v28.444h-85.31c-26.255-34.986-67.943-56.888-113.8-56.888-78.548 0-142.223 63.675-142.223 142.222 0 32.017 10.58 61.563 28.434 85.333zM801.3 625.778c11.715 33.143 43.323 56.889 80.478 56.889 47.128 0 85.333-38.205 85.333-85.334 0-47.128-38.205-85.333-85.333-85.333-37.155 0-68.763 23.746-80.478 56.889H654.222c-15.71 0-28.444 12.735-28.444 28.444 0 15.71 12.735 28.445 28.444 28.445H801.3zM791.589 853.333c-11.715-33.143-43.323-56.889-80.478-56.889-47.128 0-85.333 38.205-85.333 85.334 0 47.128 38.205 85.333 85.333 85.333 37.155 0 68.763-23.746 80.478-56.889h147.078c15.71 0 28.444-12.735 28.444-28.444 0-15.71-12.735-28.445-28.444-28.445H791.589z" /></svg>