<?xml version="1.0" encoding="UTF-8"?>
<svg width="20px" height="20px" viewBox="0 0 20 20" version="1.1" xmlns="http://www.w3.org/2000/svg" xmlns:xlink="http://www.w3.org/1999/xlink">
    <!-- Generator: Sketch 52.4 (67378) - http://www.bohemiancoding.com/sketch -->
    <title>首页图标 copy 6</title>
    <desc>Created with Sketch.</desc>
    <g id="组件" stroke="none" stroke-width="1" fill="none" fill-rule="evenodd">
        <g id="标签栏" transform="translate(-31.000000, -18.000000)" fill="#6B6B6B" stroke="#6B6B6B" stroke-width="0.5">
            <g id="首页图标-copy-6" transform="translate(32.000000, 19.000000)">
                <path d="M14.2203375,18 L11.0740298,18 C10.5774284,17.9992321 10.1750101,17.5601255 10.1745558,17.018469 L10.1745558,13.4237494 C10.1745558,12.8851893 9.636325,12.4299323 8.99934621,12.4299323 C8.36236741,12.4299323 7.82440911,12.885759 7.82440911,13.4237494 L7.82440911,17.018469 C7.82395488,17.5600264 7.42171823,17.999034 6.92518501,18 L3.78198866,18 C3.28536459,17.9992321 2.88303709,17.5601255 2.88260558,17.018469 L2.88260558,10.5654568 L1.8668053,10.5654568 C1.04788772,10.5654568 0.353336237,10.1025705 0.0967687104,9.38615815 C-0.120667556,8.77425252 0.0344948184,8.10824812 0.500140919,7.64409851 L7.63472583,0.542891933 C8.36148168,-0.181149745 9.63687007,-0.180778187 10.3643981,0.542891933 L17.498983,7.64409851 C17.9664233,8.10921417 18.1210633,8.77675434 17.9022871,9.38615815 C17.7277067,9.88156812 17.3259924,10.2697714 16.8008886,10.4505217 L16.7342542,10.473261 L14.6084479,10.473261 L14.6084479,9.48244107 L16.5888576,9.48244107 C16.8178311,9.38818933 16.9862113,9.22485266 17.0557755,9.02785288 C17.1671963,8.71755284 16.9978394,8.48666703 16.8870319,8.37646308 L9.75174291,1.27488494 C9.37176316,0.89683759 8.62690654,0.89683759 8.24731288,1.27488494 L1.11236459,8.37606675 C0.92199998,8.56553629 0.862019911,8.79679367 0.943643678,9.02668867 C1.06242284,9.35858858 1.42491503,9.57463687 1.8668053,9.57463687 L3.79273102,9.57463687 L3.79273102,17.018469 L6.92607074,17.0088828 L6.91666834,13.4237494 C6.91666834,12.3294879 7.85145805,11.4389141 9.00023194,11.4389141 C10.1490967,11.4389141 11.0831823,12.3290916 11.0831823,13.4237494 L11.0831823,17.018469 L14.2203375,17.0088828 L14.2145689,12.4013471 L15.1230137,12.4013471 L15.1230137,17.0204011 C15.111908,17.5657484 14.7067643,18 14.2203375,18" id="Fill-1"></path>
            </g>
        </g>
    </g>
</svg>