<?xml version="1.0" encoding="UTF-8"?><!DOCTYPE svg PUBLIC "-//W3C//DTD SVG 1.1//EN" "http://www.w3.org/Graphics/SVG/1.1/DTD/svg11.dtd">
<svg width="20px" height="19px" style="" viewBox="0 0 20 19" version="1.1" xmlns="http://www.w3.org/2000/svg" xmlns:xlink="http://www.w3.org/1999/xlink">
    <defs><style type="text/css"></style></defs>
    <defs>
        <polygon id="path-1" points="5.57077195e-17 0 20 0 20 19 5.57077195e-17 19"></polygon>
    </defs>
    <g id="blue-home" stroke="none" stroke-width="1" fill-rule="evenodd">
        <g id="blue_home" fill-rule="evenodd" transform="translate(-31.000000, -981.000000)">
            <g id="shouye" transform="translate(31.000000, 981.000000)">
                <mask id="mask-2" fill="white">
                    <use xlink:href="#path-1"></use>
                </mask>
                <g id="Clip-2"></g>
                <path d="M19.3588191,8.22137809 L11.7760074,0.721895135 C11.3046958,0.256326601 10.6749344,0 9.99987,0 C9.32480565,0 8.69506865,0.256326601 8.22392845,0.721895135 L0.641018786,8.22137809 C-0.141392111,8.99549652 -0.0406292964,9.66454057 0.0887201027,9.9440956 C0.180794358,10.1423627 0.49206506,10.6874288 1.38874887,10.6874288 L2.50015023,10.6874288 L2.50015023,16.4568467 C2.50015023,17.7666608 3.49015652,19 4.8970668,19 L8.12497677,19 L8.12497677,12.8943394 C8.12497677,12.2396649 8.02056721,11.8749855 8.72431605,11.8749855 L11.275424,11.8749855 C11.9790749,11.8749855 11.8748856,12.2396649 11.8748856,12.8943394 L11.8748856,19 L15.1029669,19 C16.5097793,19 17.4995898,17.7666608 17.4995898,16.4568467 L17.4995898,10.6874288 L18.6111869,10.6874288 C19.5074791,10.6874288 19.8189701,10.1423627 19.9112157,9.9440956 C20.0407609,9.66463357 20.1412545,8.99549652 19.3588191,8.22137809 Z" id="Fill-1" mask="url(#mask-2)"></path>
            </g>
        </g>
    </g>
</svg>
