<?xml version="1.0" encoding="UTF-8"?>
<svg width="19px" height="19px" viewBox="0 0 19 19" version="1.1" xmlns="http://www.w3.org/2000/svg" xmlns:xlink="http://www.w3.org/1999/xlink">
    <!-- Generator: Sketch 52.4 (67378) - http://www.bohemiancoding.com/sketch -->
    <title>live_icon</title>
    <desc>Created with Sketch.</desc>
    <defs>
        <polygon id="path-1" points="0.001425 0.0111468357 19 0.0111468357 19 18.9999749 0.001425 18.9999749"></polygon>
    </defs>
    <g id="组件" stroke="none" stroke-width="1" fill="none" fill-rule="evenodd">
        <g id="交易" transform="translate(-252.000000, -28.000000)">
            <g id="live_icon" transform="translate(252.000000, 28.000000)">
                <g id="分组">
                    <mask id="mask-2" fill="white">
                        <use xlink:href="#path-1"></use>
                    </mask>
                    <g id="Clip-2"></g>
                    <path d="M17.41673,3.36212037 L11.9373437,3.36212037 L13.1386662,0.819915344 C13.2691012,0.543962963 13.1633425,0.208396825 12.9026625,0.0704708995 C12.6418637,-0.0674550265 12.3247775,0.0443584656 12.1944137,0.320310847 L10.7570875,3.36212037 L8.2429125,3.36212037 L6.80539625,0.319933862 C6.67496125,0.0439563492 6.35775625,-0.0677566138 6.09707625,0.0703703704 C5.8363725,0.208396825 5.73080375,0.544063492 5.86133375,0.819915344 L7.06265625,3.36249735 L1.58327,3.36249735 C0.70934125,3.36347751 0.00102125,4.11294709 0,5.03773942 L0,17.3245569 C0.00092625,18.2494497 0.70924625,18.9989947 1.58327,18.9999749 L17.41673,18.9999749 C18.2907537,18.9989947 18.9990737,18.2494497 19,17.3245569 L19,5.03773942 C18.9991687,4.11274603 18.2908487,3.36310053 17.41673,3.36212037 Z M17.9445262,17.3243558 C17.9443362,17.6327288 17.7081187,17.8826693 17.41673,17.8828704 L1.58327,17.8828704 C1.29188125,17.8826693 1.05566375,17.6327288 1.05547375,17.3243558 L1.05547375,5.03773942 C1.05566375,4.7293664 1.29188125,4.47942593 1.58327,4.47922487 L17.41673,4.47922487 C17.7081187,4.47942593 17.9443362,4.7293664 17.9445262,5.03773942 L17.9445262,17.3243558 Z" id="Fill-1" stroke="#737373" fill="#737373" mask="url(#mask-2)"></path>
                </g>
                <path d="M12.411702,11.1638116 L8.0688742,8.5249247 C7.90151163,8.42306276 7.690519,8.41748161 7.51778207,8.51053246 C7.34506957,8.60358331 7.23799759,8.78039891 7.2380953,8.972343 L7.2380953,14.2498555 C7.23799759,14.4417996 7.34506957,14.6187339 7.51778207,14.7116898 C7.690519,14.8047406 7.90151163,14.7991595 8.0688742,14.6972975 L12.411702,12.0585057 C12.5703923,11.9620111 12.6666667,11.7929854 12.6666667,11.6111586 C12.6666667,11.4292368 12.5703923,11.2602111 12.411702,11.1638116 Z M8.32366789,13.2974736 L8.32366789,9.92455858 L11.0988182,11.6110636 L8.32366789,13.2974736 Z" id="Fill-3" fill="#737373"></path>
            </g>
        </g>
    </g>
</svg>