<?xml version="1.0" encoding="UTF-8"?>
<svg width="19px" height="19px" viewBox="0 0 19 19" version="1.1" xmlns="http://www.w3.org/2000/svg" xmlns:xlink="http://www.w3.org/1999/xlink">
    <!-- Generator: Sketch 52.4 (67378) - http://www.bohemiancoding.com/sketch -->
    <title>hangqing</title>
    <desc>Created with Sketch.</desc>
    <g id="组件" stroke="none" stroke-width="1" fill-rule="evenodd">
        <g id="标签栏" transform="translate(-104.000000, -18.000000)">
            <g id="hangqing" transform="translate(104.000000, 18.000000)">
                <path d="M9.49998724,0 C14.7472362,0 19,4.25290238 19,9.50010205 C19,14.7464088 14.7472362,19 9.49998724,19 C4.25365671,19 0,14.7464088 0,9.50010205 C0,4.25290238 4.25365671,0 9.49998724,0 Z" id="Fill-1"></path>
                <path d="M14.7891752,6.2052209 C14.634388,6.05464047 14.4268628,5.98708452 14.2245934,6.00232779 C14.2091868,6.00135162 14.1937802,6.00087605 14.1782963,6.00087605 L10.8206911,6 C10.4234691,6.00037545 10.1011159,6.3135507 10.1011159,6.6989625 C10.1021207,7.08575096 10.4234691,7.39892621 10.8206911,7.39845064 L12.5434205,7.39845064 L9.86228805,10.0029213 L7.98850707,8.1820896 C7.85072376,8.04795388 7.66272734,7.9739402 7.46759442,7.97726918 C7.27800066,7.97296403 7.08688685,8.04099554 6.94207009,8.18171415 L3.21148631,11.8064574 C2.92950456,12.0800352 2.92950456,12.5218646 3.21148631,12.7953422 C3.49166462,13.068019 3.94695758,13.0684195 4.22893933,12.7953422 L7.46488925,9.65074937 L9.3451111,11.4774381 C9.48559959,11.6141269 9.67027251,11.6822836 9.8550485,11.6818831 C10.0446423,11.685988 10.235653,11.6179565 10.3802894,11.4774381 L13.5604613,8.38751074 L13.5600749,9.97789135 C13.5609766,10.3634283 13.8832267,10.6764784 14.2795212,10.6764784 C14.6776707,10.6764784 15.0008998,10.3643044 14.9999981,9.97839195 L14.9999981,6.71628326 C14.9999981,6.71342984 14.999792,6.71070157 14.9997147,6.7079733 C15.0021107,6.5262055 14.9319824,6.3437619 14.7891752,6.2052209 Z" fill="#eee" id="Fill-2" ></path>
            </g>
        </g>
    </g>
</svg>