<?xml version="1.0" encoding="UTF-8"?>
<svg width="17px" height="18px" viewBox="0 0 17 18" version="1.1" xmlns="http://www.w3.org/2000/svg" xmlns:xlink="http://www.w3.org/1999/xlink">
    <!-- Generator: Sketch 52.4 (67378) - http://www.bohemiancoding.com/sketch -->
    <title>weibiaoti2fuzhi12</title>
    <desc>Created with Sketch.</desc>
    <defs>
        <polygon id="path-1" points="5.90436921e-17 0 17 0 17 18 5.90436921e-17 18"></polygon>
    </defs>
    <g id="组件" stroke="none" stroke-width="1" fill="none" fill-rule="evenodd">
        <g id="交易" transform="translate(-326.000000, -29.000000)">
            <g id="weibiaoti2fuzhi12" transform="translate(326.000000, 29.000000)">
                <mask id="mask-2" fill="white">
                    <use xlink:href="#path-1"></use>
                </mask>
                <g id="Clip-2"></g>
                <path d="M13.8125211,12.0857225 C13.6796824,11.9571262 13.5468438,11.8285298 13.4141089,11.8285298 C13.0156967,11.8285298 12.7500195,12.0857225 12.7500195,12.4714363 C12.7500195,12.7285286 12.8828581,12.8571249 13.0156967,12.9857213 C14.6093714,14.1428123 15.6718989,15.9428098 15.8047376,18 L17,18 C16.8671614,15.5571212 15.6718989,13.5000314 13.8125211,12.0857225 Z M8.76569026,9.89993597 C6.37506161,9.89993597 4.38284513,7.97144256 4.38284513,5.65716008 C4.25000648,3.21428123 6.24222296,1.28568738 8.76569026,1.28568738 C11.1562151,1.28568738 13.1484316,3.21428123 13.1484316,5.52856372 C13.1484316,7.97144256 11.1562151,9.89993597 8.76569026,9.89993597 Z M14.4765327,5.65716008 C14.4765327,2.57137476 11.9531692,0 8.63285161,0 C5.57810757,0 2.9219054,2.44287885 2.9219054,5.65716008 C2.9219054,7.71424984 4.11716784,9.51424733 5.84378486,10.5428424 C2.52346729,11.4428412 0.132838643,14.400005 0,18 L1.19526244,18 C1.32810109,14.2714087 4.51558001,11.3142448 8.36717433,11.1857238 L8.76569026,11.1857238 C11.9531692,11.1857238 14.4765327,8.74284495 14.4765327,5.65716008 Z" id="Fill-1" fill="#6B6B6B" mask="url(#mask-2)"></path>
            </g>
        </g>
    </g>
</svg>