<?xml version="1.0" encoding="UTF-8"?>
<svg width="18px" height="19px" viewBox="0 0 18 19" version="1.1" xmlns="http://www.w3.org/2000/svg" xmlns:xlink="http://www.w3.org/1999/xlink">
    <!-- Generator: Sketch 52.4 (67378) - http://www.bohemiancoding.com/sketch -->
    <title>我的图标</title>
    <desc>Created with Sketch.</desc>
    <defs>
        <polygon id="path-1" points="0.00300828729 0.0057525 17.9846274 0.0057525 17.9846274 8.9759775 0.00300828729 8.9759775"></polygon>
    </defs>
    <g id="my_active" stroke="none" stroke-width="1" fill-rule="evenodd">
        <g id="活动专区" transform="translate(-326.000000, -625.000000)">
            <g id="我的图标" transform="translate(326.000000, 625.000000)">
                <g id="Group-3" transform="translate(0.000000, 10.000000)">
                    <mask id="mask-2" fill="white">
                        <use xlink:href="#path-1"></use>
                    </mask>
                    <g id="Clip-2"></g>
                    <path d="M16.8542254,8.9759775 L1.09032762,8.9759775 C0.76441326,8.9759775 0.438598343,8.8122025 0.234929834,8.5664025 C0.0311867403,8.2796525 -0.0502110497,7.9520525 0.0311867403,7.6243025 C0.845885635,3.4463775 4.22682762,0.3334775 8.30019779,0.0057525 C9.66476685,0.0057525 11.1413387,0.1798775 12.6179105,0.7839775 C13.0456094,0.9581025 13.1881674,1.0707025 13.4326094,1.1936525 C15.7951591,2.5453025 17.4245072,4.8799775 17.9540652,7.6243025 C18.0355624,7.9520525 17.9540652,8.2796525 17.7096232,8.5664025 C17.5059796,8.8122025 17.1801398,8.9759775 16.8542254,8.9759775" id="Fill-1"  mask="url(#mask-2)"></path>
                </g>
                <path d="M1.70437486,17.6216859 C1.57358295,17.6216859 1.45286329,17.5726168 1.38240665,17.4844359 C1.37233439,17.4745981 1.37233439,17.4648082 1.36226214,17.4549944 C1.26168699,17.3568801 1.25161474,17.1902843 1.27168555,17.0921939 C2.01634451,13.3665529 5.14579393,10.572412 8.88901214,10.3077019 L9.19081127,10.3077019 C10.9920251,10.3077019 12.7227332,10.8567258 13.5679673,11.3763082 C15.781726,12.6705609 17.260898,14.6999652 17.7238286,17.0921939 C17.7438749,17.2294678 17.7137564,17.3568801 17.6130829,17.4844359 C17.5426509,17.5726168 17.4219312,17.6216859 17.2911393,17.6216859 L1.70437486,17.6216859 Z" id="Fill-4" ></path>
                <path d="M8.49271358,10.4144551 C5.71658164,10.4144551 3.46254644,8.21825186 3.46254644,5.51334734 C3.46254644,2.80856398 5.71658164,0.612360717 8.49271358,0.612360717 C11.2688455,0.612360717 13.5228807,2.80856398 13.5228807,5.51334734 C13.5228807,8.21825186 11.2688455,10.4144551 8.49271358,10.4144551" id="Fill-8" ></path>
                <path d="M8.49271358,0.302099295 C5.53831078,0.302099295 3.14424558,2.63486096 3.14424558,5.51334128 C3.14424558,8.39194276 5.53831078,10.7247044 8.49271358,10.7247044 C11.4471164,10.7247044 13.8411816,8.39194276 13.8411816,5.51334128 C13.8411816,2.63486096 11.4471164,0.302099295 8.49271358,0.302099295 M8.49271358,0.922488851 C11.0905747,0.922488851 13.2044555,2.98225488 13.2044555,5.51334128 C13.2044555,8.04454884 11.0905747,10.1043149 8.49271358,10.1043149 C5.8948836,10.1043149 3.78097166,8.04454884 3.78097166,5.51334128 C3.78097166,2.98225488 5.8948836,0.922488851 8.49271358,0.922488851" id="Fill-10"></path>
            </g>
        </g>
    </g>
</svg>