<?xml version="1.0" standalone="no"?><!DOCTYPE svg PUBLIC "-//W3C//DTD SVG 1.1//EN" "http://www.w3.org/Graphics/SVG/1.1/DTD/svg11.dtd"><svg t="1544432911870" class="icon" style="" viewBox="0 0 1024 1024" version="1.1" xmlns="http://www.w3.org/2000/svg" p-id="24770" xmlns:xlink="http://www.w3.org/1999/xlink" width="200" height="200"><defs><style type="text/css"></style></defs><path d="M430.709111 964.003972c8.474015 8.699989 19.433742 12.880503 30.506455 14.010372 2.711685 25.648019 23.275295 45.985656 49.149288 45.985656s46.55059-20.22465 49.262275-45.985656c11.072713-1.129869 21.919453-5.42337 30.393468-14.010372l213.093237-217.160763c19.659715-19.998676 19.659715-52.425908 0-72.424584-19.546728-19.998676-51.409026-19.998676-71.068741 0L519.064843 891.579389c-3.841554 3.841554-6.327265 8.587002-8.587002 13.219463-2.259737-4.632462-4.745449-9.264923-8.587002-13.219463L288.684616 674.305638c-19.659715-19.998676-51.409026-19.998676-71.068741 0s-19.659715 52.425908 0 72.424584L430.709111 964.003972z m79.655743-452.060465c27.681783 0 50.279157-22.936335 50.279157-51.183052 0-28.246717-22.484387-51.183052-50.279157-51.183052-27.681783 0-50.279157 22.936335-50.279157 51.183052 0.112987 28.246717 22.597374 51.183052 50.279157 51.183052z m0-204.732208c27.681783 0 50.279157-22.936335 50.279157-51.183052 0-28.246717-22.484387-51.183052-50.279157-51.183052-27.681783 0-50.279157 22.936335-50.279157 51.183052 0.112987 28.246717 22.597374 51.183052 50.279157 51.183052z m0-204.845195c27.681783 0 50.279157-22.936335 50.279157-51.183052 0-28.246717-22.484387-51.183052-50.279157-51.183052-27.681783 0-50.279157 22.936335-50.279157 51.183052 0.112987 28.246717 22.597374 51.183052 50.279157 51.183052z" fill="" p-id="24771"></path></svg>