<?xml version="1.0" standalone="no"?><!DOCTYPE svg PUBLIC "-//W3C//DTD SVG 1.1//EN" "http://www.w3.org/Graphics/SVG/1.1/DTD/svg11.dtd"><svg t="1543811835233" class="icon" style="" viewBox="0 0 1024 1024" version="1.1" xmlns="http://www.w3.org/2000/svg" p-id="18007" xmlns:xlink="http://www.w3.org/1999/xlink" width="200" height="200"><defs><style type="text/css"></style></defs><path d="M601.571527 959.545012 422.373215 959.545012c-168.743192 0-302.017568 0-302.017568-85.74692l0-17.664312c0-164.045193 135.438669-297.463856 302.017568-297.463856L601.571527 558.669926c166.577876 0 302.071803 133.419685 302.071803 297.463856l0 17.664312C903.64333 959.545012 763.687788 959.545012 601.571527 959.545012L601.571527 959.545012 601.571527 959.545012zM503.040443 535.980157c-131.906216 0-239.231593-105.777115-239.231593-235.771795 0-129.977283 107.325377-235.754399 239.231593-235.754399 131.871423 0 239.197824 105.72288 239.197824 235.754399C742.238266 430.203042 634.911866 535.980157 503.040443 535.980157L503.040443 535.980157 503.040443 535.980157z" p-id="18008"></path></svg>