<?xml version="1.0" standalone="no"?><!DOCTYPE svg PUBLIC "-//W3C//DTD SVG 1.1//EN" "http://www.w3.org/Graphics/SVG/1.1/DTD/svg11.dtd"><svg t="1543839964855" class="icon" style="" viewBox="0 0 1024 1024" version="1.1" xmlns="http://www.w3.org/2000/svg" p-id="19555" xmlns:xlink="http://www.w3.org/1999/xlink" width="200" height="200"><defs><style type="text/css"></style></defs><path d="M851.785 150.706c-8.517 0.306-16.838 0.415-25.027 0.415-215.24 0-310.075-95.488-310.881-96.382L494.423 32l-21.628 22.762c-0.85 1-93.812 96.38-310.838 96.38-8.19 0-16.51-0.109-25.114-0.413l-30.21-1.002v433.029c0 113.392 39.097 278.775 377.117 405.302L494.314 992l10.564-3.942c338.02-126.549 377.116-291.91 377.116-405.302v-433.03l-30.21 0.981zM461.098 694.775L266.332 517.02l51.73-43.126 103.569 78.673S564.58 400.21 702.65 329.072l19.755 22.848S549.811 499.226 461.097 694.776z m0 0" p-id="19556"></path></svg>