<?xml version="1.0" standalone="no"?><!DOCTYPE svg PUBLIC "-//W3C//DTD SVG 1.1//EN" "http://www.w3.org/Graphics/SVG/1.1/DTD/svg11.dtd"><svg t="1543824396592" class="icon" style="" viewBox="0 0 1024 1024" version="1.1" xmlns="http://www.w3.org/2000/svg" p-id="18838" xmlns:xlink="http://www.w3.org/1999/xlink" width="200" height="200"><defs><style type="text/css"></style></defs><path d="M511.048837 226.984664c253.701143 0 403.740344 213.755362 445.774693 283.164175-41.896202 69.041446-191.224206 280.731776-445.774693 280.731776-286.513456 0-413.720649-211.574696-447.059965-279.262308C105.244484 444.617333 258.724041 226.984664 511.048837 226.984664M511.094886 397.924895c65.874313 0 113.692389 46.669926 113.692389 110.985744 0 64.383356-47.794539 111.028723-113.692389 111.028723-65.920362 0-113.76095-46.645366-113.76095-111.028723C397.333936 444.593797 445.174524 397.924895 511.094886 397.924895M511.094886 348.868619c-95.244224 0-164.102499 70.027913-164.102499 160.04202 0 90.080621 68.834738 160.086022 164.102499 160.086022 95.197152 0 164.032914-70.0054 164.032914-160.086022C675.127799 418.850483 606.292038 348.868619 511.094886 348.868619L511.094886 348.868619z" p-id="18839"></path></svg>