<?xml version="1.0" standalone="no"?><!DOCTYPE svg PUBLIC "-//W3C//DTD SVG 1.1//EN" "http://www.w3.org/Graphics/SVG/1.1/DTD/svg11.dtd"><svg t="1543840430595" class="icon" style="" viewBox="0 0 1024 1024" version="1.1" xmlns="http://www.w3.org/2000/svg" p-id="20913" xmlns:xlink="http://www.w3.org/1999/xlink" width="200" height="200"><defs><style type="text/css"></style></defs><path d="M784.73216 8.63744H239.61088c-44.7488 0-80.86016 37.98528-80.86016 84.64896l-0.00512 846.07488c0 46.63808 36.11136 84.64384 80.86016 84.64384h545.1264c44.42112 0 80.53248-38.00576 80.53248-84.64384V93.2864c-0.00512-46.66368-36.13696-84.64896-80.53248-84.64896zM512 950.58944c-44.88192 0-81.22368-38.19008-81.22368-85.43232 0-46.68928 36.36224-84.8896 81.22368-84.8896 44.87168 0 81.21856 38.20032 81.21856 84.8896-0.01024 47.24224-36.37248 85.43232-81.21856 85.43232z m252.48256-269.30176c0 25.96864-19.94752 46.61248-44.4416 46.61248H303.96928c-24.4736 0-44.416-20.64384-44.416-46.61248V160.98816c0-25.94816 19.9424-46.65344 44.416-46.65344h416.07168c24.50432 0 44.4416 20.70528 44.4416 46.65344v520.29952z" p-id="20914"></path><path d="M472.97536 556.32384c-2.12992 0-4.15232-0.36864-6.02112-1.10592a24.43776 24.43776 0 0 1-9.51296-5.6832l-116.5312-110.97088c-8.30976-7.92064-9.79968-19.90144-3.328-26.70592l18.45248-19.39456c2.83136-2.97472 6.84544-4.61312 11.31008-4.61312 5.44256 0 11.09504 2.41152 15.52384 6.62528L472.28928 479.6416l171.98592-172.11392c4.38272-4.38272 10.06592-6.89664 15.60576-6.89664 4.29056 0 8.20736 1.55136 11.01824 4.36224l18.94912 18.90304c3.34848 3.33824 4.8896 8.22784 4.224 13.40928-0.60928 4.79232-3.00032 9.47712-6.72768 13.2096l-198.76864 198.92736c-4.3776 4.36736-10.0608 6.88128-15.60064 6.88128z" p-id="20915"></path></svg>